<svg width="80" height="80" viewBox="0 0 80 80" fill="none" xmlns="http://www.w3.org/2000/svg">
<path d="M67.9307 12.0693C75.0222 19.1607 79.1507 28.6841 79.4789 38.7076C79.807 48.7311 76.3102 58.5041 69.6977 66.0442C63.0852 73.5842 53.8522 78.3268 43.8717 79.3098C33.8911 80.2928 23.9103 77.4426 15.9539 71.3375C7.99751 65.2323 2.66124 56.3293 1.02759 46.4344C-0.606065 36.5395 1.58522 26.3937 7.15695 18.055C12.7287 9.7163 21.2636 3.80917 31.0305 1.53186C40.7973 -0.745453 51.0648 0.777574 59.75 5.79199" stroke="#C4C4C4"/>
<path d="M42.2852 49H39.5312V37.9375C39.5312 36.6172 39.5625 35.5703 39.625 34.7969C39.4453 34.9844 39.2227 35.1914 38.957 35.418C38.6992 35.6445 37.8242 36.3633 36.332 37.5742L34.9492 35.8281L39.9883 31.8672H42.2852V49Z" fill="#FFDB73"/>
</svg>
