<svg width="80" height="80" viewBox="0 0 80 80" fill="none" xmlns="http://www.w3.org/2000/svg">
<path d="M74.208 20.25C79.2224 28.9352 80.7455 39.2026 78.4681 48.9695C76.1908 58.7364 70.2837 67.2713 61.945 72.843C53.6064 78.4148 43.4605 80.6061 33.5656 78.9724C23.6707 77.3388 14.7677 72.0025 8.66255 64.0461C2.55737 56.0897 -0.292794 46.1089 0.690202 36.1283C1.6732 26.1478 6.41575 16.9148 13.9558 10.3023C21.4959 3.68986 31.2689 0.193016 41.2924 0.521149C51.3159 0.849281 60.8392 4.97782 67.9307 12.0693" stroke="#C4C4C4"/>
<path d="M45.8125 49H34.1992V46.9141L38.6172 42.4727C39.9219 41.1367 40.7852 40.1914 41.207 39.6367C41.6367 39.0742 41.9492 38.5469 42.1445 38.0547C42.3398 37.5625 42.4375 37.0352 42.4375 36.4727C42.4375 35.6992 42.2031 35.0898 41.7344 34.6445C41.2734 34.1992 40.6328 33.9766 39.8125 33.9766C39.1562 33.9766 38.5195 34.0977 37.9023 34.3398C37.293 34.582 36.5859 35.0195 35.7812 35.6523L34.293 33.8359C35.2461 33.0312 36.1719 32.4609 37.0703 32.125C37.9688 31.7891 38.9258 31.6211 39.9414 31.6211C41.5352 31.6211 42.8125 32.0391 43.7734 32.875C44.7344 33.7031 45.2148 34.8203 45.2148 36.2266C45.2148 37 45.0742 37.7344 44.793 38.4297C44.5195 39.125 44.0938 39.8438 43.5156 40.5859C42.9453 41.3203 41.9922 42.3164 40.6562 43.5742L37.6797 46.457V46.5742H45.8125V49Z" fill="#FFDB73"/>
</svg>
