<svg width="80" height="80" viewBox="0 0 80 80" fill="none" xmlns="http://www.w3.org/2000/svg">
<path d="M78.1541 29.7766C80.7497 39.4637 79.5635 49.7755 74.8359 58.6202C70.1083 67.4648 62.1935 74.1801 52.6969 77.4037C43.2003 80.6274 32.833 80.1181 23.6981 75.9791C14.5632 71.8402 7.34464 64.3814 3.50676 55.116C-0.331112 45.8506 -0.500946 35.4722 3.03171 26.0861C6.56437 16.7001 13.535 9.00918 22.5296 4.57353C31.5242 0.137885 41.8692 -0.710363 51.4662 2.20085C61.0632 5.11207 69.1936 11.5648 74.208 20.25" stroke="#C4C4C4"/>
<path d="M45.168 35.8047C45.168 36.8906 44.8516 37.7969 44.2188 38.5234C43.5859 39.2422 42.6953 39.7266 41.5469 39.9766V40.0703C42.9219 40.2422 43.9531 40.6719 44.6406 41.3594C45.3281 42.0391 45.6719 42.9453 45.6719 44.0781C45.6719 45.7266 45.0898 47 43.9258 47.8984C42.7617 48.7891 41.1055 49.2344 38.957 49.2344C37.0586 49.2344 35.457 48.9258 34.1523 48.3086V45.8594C34.8789 46.2188 35.6484 46.4961 36.4609 46.6914C37.2734 46.8867 38.0547 46.9844 38.8047 46.9844C40.1328 46.9844 41.125 46.7383 41.7812 46.2461C42.4375 45.7539 42.7656 44.9922 42.7656 43.9609C42.7656 43.0469 42.4023 42.375 41.6758 41.9453C40.9492 41.5156 39.8086 41.3008 38.2539 41.3008H36.7656V39.0625H38.2773C41.0117 39.0625 42.3789 38.1172 42.3789 36.2266C42.3789 35.4922 42.1406 34.9258 41.6641 34.5273C41.1875 34.1289 40.4844 33.9297 39.5547 33.9297C38.9062 33.9297 38.2812 34.0234 37.6797 34.2109C37.0781 34.3906 36.3672 34.7461 35.5469 35.2773L34.1992 33.3555C35.7695 32.1992 37.5938 31.6211 39.6719 31.6211C41.3984 31.6211 42.7461 31.9922 43.7148 32.7344C44.6836 33.4766 45.168 34.5 45.168 35.8047Z" fill="#FFDB73"/>
</svg>
