<svg width="80" height="80" viewBox="0 0 80 80" fill="none" xmlns="http://www.w3.org/2000/svg">
<path d="M79.5 40C79.5 50.0288 75.6853 59.6822 68.8296 67.0019C61.974 74.3216 52.5908 78.7595 42.5834 79.4154C32.5761 80.0713 22.6939 76.8961 14.9415 70.5339C7.18906 64.1717 2.14695 55.0988 0.837927 45.1558C-0.471098 35.2127 2.05098 25.144 7.89256 16.9921C13.7341 8.84022 22.4578 3.21551 32.2939 1.25898C42.1301 -0.697548 52.3422 1.16061 60.8587 6.45652C69.3752 11.7524 75.5584 20.0895 78.1541 29.7767" stroke="#C4C4C4"/>
<path d="M46.4219 45.2617H44.1133V49H41.4297V45.2617H33.6016V43.1406L41.4297 31.8203H44.1133V42.9766H46.4219V45.2617ZM41.4297 42.9766V38.6758C41.4297 37.1445 41.4688 35.8906 41.5469 34.9141H41.4531C41.2344 35.4297 40.8906 36.0547 40.4219 36.7891L36.168 42.9766H41.4297Z" fill="#FFDB73"/>
</svg>
