<svg xmlns="http://www.w3.org/2000/svg" width="163" height="50"><path fill="#fff600" d="M115 46h34a2 2 0 110 4h-34a2 2 0 010-4zm46.72-39.442c1.28 4.679 1.28 14.44 1.28 14.44s0 9.763-1.28 14.442c-.705 2.582-2.782 4.615-5.418 5.305-4.777 1.253-23.936 1.253-23.936 1.253s-19.159 0-23.937-1.253c-2.636-.69-4.713-2.723-5.417-5.305-1.28-4.679-1.28-14.441-1.28-14.441s0-9.762 1.28-14.441c.704-2.582 2.78-4.614 5.417-5.304 4.778-1.255 23.937-1.255 23.937-1.255s19.159 0 23.936 1.255c2.636.69 4.713 2.722 5.417 5.304m-32.214 8.863c0-1.008-.846-1.835-1.877-1.835-1.03 0-1.878.827-1.878 1.835v.432c-1.362-1.8-3.534-2.771-6-2.771-4.528 0-8.247 4.03-8.247 9.032s3.719 9.033 8.247 9.033c2.466 0 4.638-.936 6-2.735v.36c0 1.007.847 1.835 1.878 1.835 1.03 0 1.877-.828 1.877-1.835zm-14.247 6.693c0-2.914 1.804-5.362 5.08-5.362 3.02 0 5.412 2.772 5.412 5.362 0 2.591-2.393 5.363-5.411 5.363-3.277 0-5.08-2.448-5.08-5.363zm35.747-15.618c0-1.007-.846-1.835-1.877-1.835-1.03 0-1.878.828-1.878 1.835v9.357c-1.362-1.8-3.534-2.771-6-2.771-4.528 0-8.247 4.03-8.247 9.032s3.719 9.033 8.247 9.033c2.466 0 4.638-.936 6-2.735v.36c0 1.007.847 1.835 1.878 1.835 1.03 0 1.877-.828 1.877-1.835zm-14.247 15.618c0-2.914 1.804-5.362 5.08-5.362 3.02 0 5.412 2.772 5.412 5.362 0 2.591-2.393 5.363-5.411 5.363-3.277 0-5.08-2.448-5.08-5.363z"/><text dominant-baseline="text-before-edge" style="line-height:29px" fill="#fff" font-family="'Camera','Camera-Bold'" font-size="38.67" font-style="none" font-weight="700" transform="translate(0 4)"><tspan style="font-kerning:normal" letter-spacing="-2.13">limon</tspan></text></svg>