<svg width="248" height="27" fill="none" xmlns="http://www.w3.org/2000/svg"><path d="M13.48 16.752H6.032L4.616 21H.1L7.774.383h3.936L19.428 21H14.91l-1.43-4.248zm-6.3-3.441h5.154L9.742 5.594 7.18 13.31zM21.353 21V.383h7.221c2.502 0 4.4.481 5.693 1.444 1.293.954 1.94 2.355 1.94 4.206 0 1.01-.26 1.902-.78 2.676-.518.765-1.24 1.326-2.166 1.685 1.057.264 1.888.798 2.492 1.6.614.803.92 1.784.92 2.946 0 1.982-.632 3.483-1.897 4.502-1.265 1.02-3.068 1.54-5.409 1.558h-8.014zm4.248-8.977v5.564h3.639c1 0 1.78-.236 2.336-.708.567-.481.85-1.142.85-1.982 0-1.888-.977-2.846-2.931-2.874h-3.894zm0-3.002h3.143c2.143-.038 3.214-.893 3.214-2.563 0-.935-.273-1.605-.82-2.011-.539-.416-1.393-.623-2.564-.623h-2.973V9.02zm29.396-5.197h-6.315V21h-4.248V3.824h-6.23V.383h16.793v3.44zm18.975 7.335c0 2.03-.36 3.809-1.076 5.338-.718 1.53-1.747 2.71-3.087 3.54-1.332.83-2.86 1.246-4.588 1.246-1.709 0-3.234-.41-4.574-1.232-1.34-.821-2.379-1.992-3.115-3.511-.737-1.53-1.11-3.286-1.119-5.268v-1.02c0-2.03.364-3.813 1.09-5.352.737-1.548 1.77-2.733 3.102-3.554C61.946.515 63.475.1 65.192.1c1.719 0 3.243.415 4.574 1.246 1.34.821 2.374 2.006 3.101 3.554.737 1.539 1.105 3.318 1.105 5.338v.92zm-4.305-.935c0-2.162-.387-3.804-1.161-4.928-.774-1.123-1.879-1.685-3.314-1.685-1.425 0-2.525.557-3.299 1.671-.774 1.105-1.166 2.728-1.175 4.871v1.006c0 2.105.387 3.738 1.16 4.9.775 1.16 1.889 1.74 3.343 1.74 1.425 0 2.52-.556 3.285-1.67.764-1.124 1.151-2.757 1.161-4.9v-1.005zM93.372.383V21H89.11V3.824h-5.494l-.34 7.278c-.142 2.454-.453 4.39-.935 5.806-.481 1.406-1.184 2.44-2.11 3.1-.925.652-2.19.983-3.794.992h-1.105v-3.413l.708-.07c1.067-.142 1.827-.756 2.28-1.841.462-1.095.755-3.04.878-5.834l.354-9.46h13.82zm20.646 10.776c0 2.03-.359 3.809-1.077 5.338-.717 1.53-1.746 2.71-3.087 3.54-1.331.83-2.86 1.246-4.587 1.246-1.709 0-3.234-.41-4.574-1.232-1.34-.821-2.379-1.992-3.115-3.511-.737-1.53-1.11-3.286-1.119-5.268v-1.02c0-2.03.363-3.813 1.09-5.352.737-1.548 1.77-2.733 3.101-3.554C101.991.515 103.52.1 105.238.1s3.243.415 4.574 1.246c1.341.821 2.374 2.006 3.101 3.554.736 1.539 1.105 3.318 1.105 5.338v.92zm-4.305-.935c0-2.162-.387-3.804-1.161-4.928-.774-1.123-1.879-1.685-3.314-1.685-1.425 0-2.525.557-3.299 1.671-.774 1.105-1.166 2.728-1.175 4.871v1.006c0 2.105.387 3.738 1.161 4.9.774 1.16 1.888 1.74 3.342 1.74 1.425 0 2.52-.556 3.285-1.67.764-1.124 1.151-2.757 1.161-4.9v-1.005zM122.655.383l5.296 14.953L133.219.383h5.579V21h-4.262v-5.636l.424-9.728L129.396 21h-2.917l-5.551-15.35.425 9.714V21h-4.249V.383h5.551zm33.305 3.44h-9.204v3.994h3.313c2.426 0 4.348.59 5.764 1.77 1.425 1.17 2.138 2.752 2.138 4.744 0 2-.708 3.61-2.124 4.828-1.407 1.209-3.281 1.822-5.622 1.841h-7.76V.383h13.495v3.44zm-9.204 7.42v6.344h3.384c1.086 0 1.95-.297 2.591-.892.652-.594.977-1.392.977-2.393 0-.934-.311-1.67-.934-2.209-.614-.547-1.459-.83-2.535-.85h-3.483zm25.573 5.509h-7.448L163.465 21h-4.517L166.623.383h3.936L178.276 21h-4.517l-1.43-4.248zm-6.301-3.441h5.154l-2.591-7.717-2.563 7.717zm18.422.425V21h-4.248V.383h8.043c1.548 0 2.908.283 4.078.85 1.18.566 2.087 1.373 2.719 2.42.632 1.04.949 2.224.949 3.555 0 2.02-.694 3.616-2.082 4.786-1.378 1.161-3.29 1.742-5.735 1.742h-3.724zm0-3.441h3.795c1.123 0 1.978-.264 2.563-.793.595-.529.892-1.284.892-2.266 0-1.01-.297-1.826-.892-2.45-.595-.622-1.416-.943-2.464-.962h-3.894v6.47zm30.218 15.774h-3.922V21h-12.433v5.055h-4.021l-.227-8.468h1.558c.84-.698 1.486-1.722 1.939-3.072.463-1.36.775-3.04.935-5.041l.595-9.091h13.509v17.204h2.407l-.34 8.482zm-14.174-8.482h7.859V3.824h-5.226l-.354 5.423c-.283 3.635-1.043 6.415-2.279 8.34z" fill="#000"/><path d="M230.938 21h-14.132v-2.804l6.67-7.108c.915-1 1.59-1.874 2.024-2.62.444-.746.666-1.454.666-2.124 0-.915-.231-1.633-.694-2.152-.462-.529-1.123-.793-1.982-.793-.925 0-1.657.32-2.195.963-.529.632-.793 1.468-.793 2.506h-4.106c0-1.255.297-2.402.892-3.44.604-1.04 1.453-1.851 2.548-2.436C220.931.397 222.173.1 223.561.1c2.124 0 3.771.51 4.941 1.529 1.18 1.02 1.77 2.459 1.77 4.319 0 1.02-.264 2.058-.793 3.115-.528 1.057-1.434 2.29-2.718 3.696l-4.687 4.942h8.864V21zm14.627-7.76h2.337v3.3h-2.337V21h-4.092v-4.46h-8.453l-.185-2.578 8.596-13.58h4.134V13.24zm-8.651 0h4.559V5.962l-.269.467-4.29 6.811z" fill="#DB3E3E"/></svg>