<svg xmlns="http://www.w3.org/2000/svg" width="46" height="16" viewBox="0 0 46 16"><defs><filter id="a" width="200%" height="200%" x="-50%" y="-50%"><feMorphology in="SourceGraphic" operator="dilate" result="SvgjsFeMorphology1010Out"/><feOffset in="SvgjsFeMorphology1010Out" result="SvgjsFeOffset1011Out"/><feGaussianBlur in="SvgjsFeOffset1011Out" result="SvgjsFeGaussianBlur1012Out" stdDeviation="2.5"/><feComposite in="SvgjsFeGaussianBlur1012Out" in2="SourceAlpha" operator="out" result="SvgjsFeComposite1013Out"/></filter><filter id="b" width="200%" height="200%" x="-50%" y="-50%"><feMorphology in="SourceGraphic" operator="dilate" result="SvgjsFeMorphology1017Out"/><feOffset in="SvgjsFeMorphology1017Out" result="SvgjsFeOffset1018Out"/><feGaussianBlur in="SvgjsFeOffset1018Out" result="SvgjsFeGaussianBlur1019Out" stdDeviation="2.5"/><feComposite in="SvgjsFeGaussianBlur1019Out" in2="SourceAlpha" operator="out" result="SvgjsFeComposite1020Out"/></filter><filter id="c" width="200%" height="200%" x="-50%" y="-50%"><feMorphology in="SourceGraphic" operator="dilate" result="SvgjsFeMorphology1024Out"/><feOffset in="SvgjsFeMorphology1024Out" result="SvgjsFeOffset1025Out"/><feGaussianBlur in="SvgjsFeOffset1025Out" result="SvgjsFeGaussianBlur1026Out" stdDeviation="2.5"/><feComposite in="SvgjsFeGaussianBlur1026Out" in2="SourceAlpha" operator="out" result="SvgjsFeComposite1027Out"/></filter></defs><path fill="#f90092" fill-opacity=".67" d="M644 4675a3 3 0 0 1 6 0 3 3 0 0 1-6 0z" filter="url(#a)" transform="translate(-639 -4667)"/><path fill="#f90092" d="M5 8a3 3 0 0 1 6 0 3 3 0 0 1-6 0z"/><path fill="#f90092" fill-opacity=".67" d="M659 4675a3 3 0 0 1 6 0 3 3 0 0 1-6 0z" filter="url(#b)" transform="translate(-639 -4667)"/><path fill="#f90092" d="M20 8a3 3 0 0 1 6 0 3 3 0 0 1-6 0z"/><path fill="#f90092" fill-opacity=".67" d="M674 4675a3 3 0 0 1 6 0 3 3 0 0 1-6 0z" filter="url(#c)" transform="translate(-639 -4667)"/><path fill="#f90092" d="M35 8a3 3 0 0 1 6 0 3 3 0 0 1-6 0z"/></svg>