
<svg width="1440px" height="922px" viewBox="0 0 1440 922" version="1.1" xmlns="http://www.w3.org/2000/svg" xmlns:xlink="http://www.w3.org/1999/xlink">
    <!-- Generator: Sketch 43.1 (39012) - http://www.bohemiancoding.com/sketch -->
    <desc>Created with Sketch.</desc>
    <defs>
        <linearGradient x1="40.1217876%" y1="171.606644%" x2="58.1296763%" y2="-57.9080595%" id="linearGradient-1">
            <stop stop-color="#3023AE" offset="0%"></stop>
            <stop stop-color="#C96DD8" offset="100%"></stop>
        </linearGradient>
    </defs>
    <g id="Page-1" stroke="none" stroke-width="1" fill="none" fill-rule="evenodd">
        <g id="-" transform="translate(0.000000, -1030.000000)">
            <path d="M-17.374852,2014 C-37.3102413,1945.62615 -48,1873.31144 -48,1798.5 C-48,1374.06917 296.06917,1030 720.5,1030 C1144.93083,1030 1489,1374.06917 1489,1798.5 C1489,1873.31144 1478.31024,1945.62615 1458.37485,2014 L-17.3748611,2014 Z" id="Combined-Shape" fill="url(#linearGradient-1)"></path>
            <g id="элементы" opacity="0.406306612" transform="translate(44.000000, 1121.000000)">
                <g id="windows" transform="translate(216.000000, 733.000000)" fill-rule="nonzero" fill="#D74758">
                    <path d="M17.6666667,4.66666667 L17.6666667,2.33333333 L15.3333333,2.33333333 L15.3333333,0 L0,0 L0,11.3333333 L2.33333333,11.3333333 L2.33333333,13.6666667 L4.66666667,13.6666667 L4.66666667,16 L20,16 L20,4.66666667 L17.6666667,4.66666667 Z M0.666666667,10.6666667 L0.666666667,0.666666667 L14.6666667,0.666666667 L14.6666667,2.33333333 L2.33333333,2.33333333 L2.33333333,10.6666667 L0.666666667,10.6666667 Z M3,13 L3,11.3333333 L3,3 L15.3333333,3 L17,3 L17,4.66666667 L4.66666667,4.66666667 L4.66666667,13 L3,13 Z M19.3333333,15.3333333 L5.33333333,15.3333333 L5.33333333,13.6666667 L5.33333333,5.33333333 L17.6666667,5.33333333 L19.3333333,5.33333333 L19.3333333,15.3333333 Z" id="Shape"></path>
                </g>
                <g id="windows-2" transform="translate(1295.000000, 502.000000)" fill-rule="nonzero" fill="#FFFFFF">
                    <path d="M17.6666667,4.66666667 L17.6666667,2.33333333 L15.3333333,2.33333333 L15.3333333,0 L0,0 L0,11.3333333 L2.33333333,11.3333333 L2.33333333,13.6666667 L4.66666667,13.6666667 L4.66666667,16 L20,16 L20,4.66666667 L17.6666667,4.66666667 Z M0.666666667,10.6666667 L0.666666667,0.666666667 L14.6666667,0.666666667 L14.6666667,2.33333333 L2.33333333,2.33333333 L2.33333333,10.6666667 L0.666666667,10.6666667 Z M3,13 L3,11.3333333 L3,3 L15.3333333,3 L17,3 L17,4.66666667 L4.66666667,4.66666667 L4.66666667,13 L3,13 Z M19.3333333,15.3333333 L5.33333333,15.3333333 L5.33333333,13.6666667 L5.33333333,5.33333333 L17.6666667,5.33333333 L19.3333333,5.33333333 L19.3333333,15.3333333 Z" id="Shape"></path>
                </g>
                <polyline id="Path-3" stroke="#FFFFFF" stroke-width="2" points="752 817 745.933333 828 752.533333 828 747.2 839"></polyline>
                <g id="placeholder-2" transform="translate(1281.000000, 703.000000)" fill-rule="nonzero" fill="#D74758">
                    <path d="M9.02630769,5.23636364 C7.24523077,5.23636364 5.79553846,6.60698182 5.79553846,8.29090909 C5.79553846,9.97483636 7.24523077,11.3454545 9.02630769,11.3454545 C10.8073846,11.3454545 12.2570769,9.97483636 12.2570769,8.29090909 C12.2570769,6.60698182 10.8073846,5.23636364 9.02630769,5.23636364 Z M9.02630769,10.4727273 C7.75384615,10.4727273 6.71861538,9.49396364 6.71861538,8.29090909 C6.71861538,7.08785455 7.75384615,6.10909091 9.02630769,6.10909091 C10.2987692,6.10909091 11.334,7.08785455 11.334,8.29090909 C11.334,9.49396364 10.2987692,10.4727273 9.02630769,10.4727273 Z" id="Shape"></path>
                    <path d="M15.2030769,2.45105455 C13.5313846,0.870545455 11.3086154,0 8.94461538,0 C6.58015385,0 4.35784615,0.870545455 2.68615385,2.45105455 C-0.407538462,5.37556364 -0.792,10.8781091 1.85353846,14.2119273 L8.94461538,23.8939636 L16.0250769,14.2254545 C18.6812308,10.8781091 18.2967692,5.37556364 15.2030769,2.45105455 Z M15.2764615,13.7153455 L8.94461538,22.3605818 L2.60261538,13.7018182 C0.203076923,10.6769455 0.546923077,5.70763636 3.33923077,3.06807273 C4.83646154,1.65250909 6.82707692,0.872727273 8.94461538,0.872727273 C11.0621538,0.872727273 13.0527692,1.65250909 14.5504615,3.06807273 C17.3427692,5.70763636 17.6866154,10.6769455 15.2764615,13.7153455 Z" id="Shape"></path>
                </g>
                <g id="cancel-music-2" transform="translate(1156.000000, 791.000000)" fill="#FFFFFF">
                    <path d="M6.80677934,5.49953521 L10.7283568,1.57795775 C11.0893427,1.21697183 11.0893427,0.631699531 10.7283568,0.270765258 C10.3673709,-0.0902206573 9.78215023,-0.0902206573 9.42116432,0.270765258 L5.49953521,4.19239437 L1.5779061,0.270713615 C1.21692019,-0.0902723005 0.631699531,-0.0902723005 0.270713615,0.270713615 C-0.0902206573,0.631699531 -0.0902206573,1.21697183 0.270713615,1.5779061 L4.19234272,5.49948357 L0.270713615,9.42111268 C-0.0902206573,9.78209859 -0.0902206573,10.3673709 0.270713615,10.7283052 C0.631699531,11.0892911 1.21692019,11.0892911 1.5779061,10.7283052 L5.49953521,6.80667606 L9.42116432,10.7283052 C9.78209859,11.0892911 10.3673709,11.0892911 10.7283568,10.7283052 C11.0893427,10.3673192 11.0893427,9.78209859 10.7283568,9.42111268 L6.80677934,5.49953521 Z" id="Shape"></path>
                </g>
                <g id="like" transform="translate(1258.000000, 296.000000)" fill-rule="nonzero" fill="#FFFFFF">
                    <path d="M20.9640577,6.0968 C20.6575385,2.7552 18.2695962,0.3308 15.2811346,0.3308 C13.2901731,0.3308 11.4672115,1.392 10.4414423,3.0928 C9.42496154,1.37 7.67671154,0.3304 5.71765385,0.3304 C2.72959615,0.3304 0.34125,2.7548 0.0351346154,6.0964 C0.0109038462,6.244 -0.0884423077,7.0208 0.213634615,8.2876 C0.648980769,10.1148 1.65455769,11.7768 3.12092308,13.0928 L10.4365962,19.6684 L17.8778654,13.0932 C19.3442308,11.7768 20.3498077,10.1152 20.7851538,8.2876 C21.0872308,7.0212 20.9878846,6.2444 20.9640577,6.0968 Z M19.9988654,8.1044 C19.6014808,9.7732 18.6803077,11.2936 17.3375192,12.4984 L10.4414423,18.5924 L3.66369231,12.5 C2.31848077,11.2928 1.39771154,9.7728 0.999923077,8.104 C0.714,6.9052 0.831519231,6.228 0.831923077,6.2236 L0.837980769,6.1832 C1.10048077,3.2556 3.15242308,1.1304 5.71765385,1.1304 C7.61048077,1.1304 9.27675,2.2824 10.0674808,4.1364 L10.4394231,5.0096 L10.8113654,4.1364 C11.5895769,2.3108 13.3438846,1.1308 15.2815385,1.1308 C17.8463654,1.1308 19.8987115,3.256 20.1664615,6.2216 C20.1672692,6.228 20.2847885,6.9056 19.9988654,8.1044 Z" id="Shape"></path>
                </g>
                <polyline id="Path-3" stroke="#FFFFFF" stroke-width="2" points="97.0666667 632 91 643 97.6 643 92.2666667 654"></polyline>
                <polyline id="Path-3" stroke="#FFFFFF" stroke-width="2" points="397.066667 0 391 11 397.6 11 392.266667 22"></polyline>
                <g id="cancel-music" transform="translate(481.000000, 794.000000)" fill="#D74758">
                    <path d="M6.80677934,5.49953521 L10.7283568,1.57795775 C11.0893427,1.21697183 11.0893427,0.631699531 10.7283568,0.270765258 C10.3673709,-0.0902206573 9.78215023,-0.0902206573 9.42116432,0.270765258 L5.49953521,4.19239437 L1.5779061,0.270713615 C1.21692019,-0.0902723005 0.631699531,-0.0902723005 0.270713615,0.270713615 C-0.0902206573,0.631699531 -0.0902206573,1.21697183 0.270713615,1.5779061 L4.19234272,5.49948357 L0.270713615,9.42111268 C-0.0902206573,9.78209859 -0.0902206573,10.3673709 0.270713615,10.7283052 C0.631699531,11.0892911 1.21692019,11.0892911 1.5779061,10.7283052 L5.49953521,6.80667606 L9.42116432,10.7283052 C9.78209859,11.0892911 10.3673709,11.0892911 10.7283568,10.7283052 C11.0893427,10.3673192 11.0893427,9.78209859 10.7283568,9.42111268 L6.80677934,5.49953521 Z" id="Shape"></path>
                </g>
                <g id="windows-2" transform="translate(918.000000, 753.000000)" fill-rule="nonzero" fill="#FFFFFF">
                    <path d="M17.6666667,4.66666667 L17.6666667,2.33333333 L15.3333333,2.33333333 L15.3333333,0 L0,0 L0,11.3333333 L2.33333333,11.3333333 L2.33333333,13.6666667 L4.66666667,13.6666667 L4.66666667,16 L20,16 L20,4.66666667 L17.6666667,4.66666667 Z M0.666666667,10.6666667 L0.666666667,0.666666667 L14.6666667,0.666666667 L14.6666667,2.33333333 L2.33333333,2.33333333 L2.33333333,10.6666667 L0.666666667,10.6666667 Z M3,13 L3,11.3333333 L3,3 L15.3333333,3 L17,3 L17,4.66666667 L4.66666667,4.66666667 L4.66666667,13 L3,13 Z M19.3333333,15.3333333 L5.33333333,15.3333333 L5.33333333,13.6666667 L5.33333333,5.33333333 L17.6666667,5.33333333 L19.3333333,5.33333333 L19.3333333,15.3333333 Z" id="Shape"></path>
                </g>
                <g id="cancel-music-2" transform="translate(5.000000, 493.000000)" fill="#FFFFFF">
                    <path d="M6.80677934,5.49953521 L10.7283568,1.57795775 C11.0893427,1.21697183 11.0893427,0.631699531 10.7283568,0.270765258 C10.3673709,-0.0902206573 9.78215023,-0.0902206573 9.42116432,0.270765258 L5.49953521,4.19239437 L1.5779061,0.270713615 C1.21692019,-0.0902723005 0.631699531,-0.0902723005 0.270713615,0.270713615 C-0.0902206573,0.631699531 -0.0902206573,1.21697183 0.270713615,1.5779061 L4.19234272,5.49948357 L0.270713615,9.42111268 C-0.0902206573,9.78209859 -0.0902206573,10.3673709 0.270713615,10.7283052 C0.631699531,11.0892911 1.21692019,11.0892911 1.5779061,10.7283052 L5.49953521,6.80667606 L9.42116432,10.7283052 C9.78209859,11.0892911 10.3673709,11.0892911 10.7283568,10.7283052 C11.0893427,10.3673192 11.0893427,9.78209859 10.7283568,9.42111268 L6.80677934,5.49953521 Z" id="Shape"></path>
                </g>
                <g id="windows" transform="translate(70.000000, 366.000000)" fill-rule="nonzero" fill="#D74758">
                    <path d="M17.6666667,4.66666667 L17.6666667,2.33333333 L15.3333333,2.33333333 L15.3333333,0 L0,0 L0,11.3333333 L2.33333333,11.3333333 L2.33333333,13.6666667 L4.66666667,13.6666667 L4.66666667,16 L20,16 L20,4.66666667 L17.6666667,4.66666667 Z M0.666666667,10.6666667 L0.666666667,0.666666667 L14.6666667,0.666666667 L14.6666667,2.33333333 L2.33333333,2.33333333 L2.33333333,10.6666667 L0.666666667,10.6666667 Z M3,13 L3,11.3333333 L3,3 L15.3333333,3 L17,3 L17,4.66666667 L4.66666667,4.66666667 L4.66666667,13 L3,13 Z M19.3333333,15.3333333 L5.33333333,15.3333333 L5.33333333,13.6666667 L5.33333333,5.33333333 L17.6666667,5.33333333 L19.3333333,5.33333333 L19.3333333,15.3333333 Z" id="Shape"></path>
                </g>
            </g>
        </g>
    </g>
</svg>