<svg height="496pt" viewBox="0 0 496 496" width="496pt" xmlns="http://www.w3.org/2000/svg" xmlns:xlink="http://www.w3.org/1999/xlink"><linearGradient id="a" gradientUnits="userSpaceOnUse" x1="248" x2="248" y1="496" y2="0"><stop offset="0" stop-color="#9f2fff"/><stop offset="1" stop-color="#0bb1d3"/></linearGradient><path d="m384 112c-56.9375 0-103.976562 42.726562-110.992188 97.785156-2.792968-1.128906-5.824218-1.785156-9.007812-1.785156-13.230469 0-24 10.769531-24 24 0 .070312.015625.128906.023438.199219l-101.121094 33.183593c-4.398438-5.671874-11.191406-9.382812-18.902344-9.382812-4.792969 0-9.238281 1.449219-12.992188 3.871094l-59.785156-46.117188c.464844-1.851562.777344-3.761718.777344-5.753906 0-13.230469-10.769531-24-24-24s-24 10.769531-24 24c0 10.414062 6.710938 19.214844 16 22.527344v265.472656h400v-96h16v-16h-16v-16h16v-16h-16v-20.71875c46.199219-13.808594 80-56.648438 80-107.28125 0-61.761719-50.238281-112-112-112zm-64 280v-76.214844c9.671875 6.765625 20.441406 12.046875 32 15.503906v20.710938h-16v16h16v16h-16v16h16v80h-32v-72h-16v72h-32v-225.472656c1.359375-.480469 2.640625-1.085938 3.871094-1.792969 5.03125 18.921875 14.824218 35.90625 28.128906 49.503906v89.761719zm-56-168c4.414062 0 8 3.59375 8 8s-3.585938 8-8 8-8-3.59375-8-8 3.585938-8 8-8zm-8 30.527344v225.472656h-32v-112h-16v112h-32v-209.953125l32-10.496094v92.449219h16v-97.703125l21.59375-7.089844c2.734375 3.304688 6.285156 5.847657 10.40625 7.320313zm-136 17.472656c4.414062 0 8 3.585938 8 8s-3.585938 8-8 8-8-3.585938-8-8 3.585938-8 8-8zm-96-72c4.414062 0 8 3.59375 8 8s-3.585938 8-8 8-8-3.59375-8-8 3.585938-8 8-8zm8 30.527344c2.304688-.824219 4.433594-1.960938 6.351562-3.40625l25.648438 19.78125v105.097656h16v-92.753906l17.296875 13.339844c-.777344 2.351562-1.296875 4.804687-1.296875 7.414062 0 10.414062 6.710938 19.214844 16 22.527344v129.472656h16v-129.472656c9.121094-3.246094 15.703125-11.800782 15.945312-21.960938l16.054688-5.269531v204.703125h-32v-32h-16v32h-32v-112h-16v112h-32zm368 249.472656h-32v-80h32zm0-96h-32v-16h32zm0-32h-32v-17.28125c5.238281.753906 10.550781 1.28125 16 1.28125s10.761719-.519531 16-1.28125zm-16-32c-52.9375 0-96-43.0625-96-96s43.0625-96 96-96 96 43.0625 96 96-43.0625 96-96 96zm80-96c0 16.0625-4.753906 31.566406-13.726562 44.824219l-13.25-8.96875c7.175781-10.609375 10.976562-23 10.976562-35.855469 0-35.289062-28.710938-64-64-64-12.847656 0-25.246094 3.800781-35.847656 10.976562l-8.96875-13.242187c13.257812-8.980469 28.753906-13.734375 44.816406-13.734375 44.113281 0 80 35.886719 80 80zm-36.289062 46.65625 10.9375 11.671875c-14.921876 13.976563-34.328126 21.671875-54.648438 21.671875-44.113281 0-80-35.886719-80-80 0-20.328125 7.695312-39.726562 21.671875-54.648438l11.671875 10.9375c-11.175781 11.941407-17.34375 27.464844-17.34375 43.710938 0 35.289062 28.710938 64 64 64 16.238281 0 31.769531-6.167969 43.710938-17.34375zm-27.710938-30.65625c0-4.40625-3.585938-8-8-8h-16c-13.230469 0-24-10.769531-24-24s10.769531-24 24-24v-8h16v8c13.230469 0 24 10.769531 24 24h-16c0-4.40625-3.585938-8-8-8h-16c-4.414062 0-8 3.59375-8 8s3.585938 8 8 8h16c13.230469 0 24 10.769531 24 24s-10.769531 24-24 24v8h-16v-8c-13.230469 0-24-10.769531-24-24h16c0 4.40625 3.585938 8 8 8h16c4.414062 0 8-3.59375 8-8zm-224-12.6875 51.3125-51.3125h44.6875v-176h-240v176h144zm-128-67.3125v-144h208v144h-35.3125l-28.6875 28.6875v-28.6875zm48-112h16v16h-16v80h-16v-80h-16v-16h16v-16h16zm112 48h-16v-16h16v-48h16v48h16v16h-16v48h-16zm-48 16h16v16h-16v16h-16v-16h-16v-16h16v-80h16zm160-64h-16v-16h16zm-16 0v16h-16v-16zm0 32v-16h16v16zm16-16v-16h16v16zm160 24h-16v-16h16zm-16 0v16h-16v-16zm0 16h16v16h-16zm16-16h16v16h-16zm0 0" fill="url(#a)"/></svg>