<svg height="496pt" viewBox="0 0 496 496" width="496pt" xmlns="http://www.w3.org/2000/svg" xmlns:xlink="http://www.w3.org/1999/xlink"><linearGradient id="a" gradientUnits="userSpaceOnUse" x1="248" x2="248" y1="496" y2="0"><stop offset="0" stop-color="#9f2fff"/><stop offset="1" stop-color="#0bb1d3"/></linearGradient><path d="m64.390625 359.488281-.78125-15.984375c37.816406-1.855468 75.191406-8.863281 111.101563-20.832031 51.28125-17.097656 98.082031-43.59375 139.113281-78.769531l10.414062 12.152344c-42.605469 36.519531-91.214843 64.042968-144.460937 81.800781-37.296875 12.417969-76.113282 19.695312-115.386719 21.632812zm-32.390625.511719h11.222656l4.875-.023438-.195312-16-15.902344.023438zm-16-16h-16v16h16zm158.710938-69.335938c-25.832032 8.617188-52.65625 14.703126-79.703126 18.105469l1.992188 15.871094c28.097656-3.527344 55.945312-9.847656 82.777344-18.800781 41.460937-13.816406 80.46875-33.785156 115.941406-59.351563l-9.359375-12.976562c-34.160156 24.617187-71.71875 43.839843-111.648437 57.152343zm-110.320313 36.816407c5.449219-.273438 10.875-.640625 16.304687-1.113281l-1.382812-15.933594c-5.222656.445312-10.457031.804687-15.695312 1.0625zm-16.488281-15.503907-15.902344.023438v16h11.222656l4.875-.023438zm-31.902344.023438h-16v16h16zm40-184v4c0 15.441406 12.558594 28 28 28h4v16h16v-16h4c15.441406 0 28-12.558594 28-28s-12.558594-28-28-28h-24c-6.617188 0-12-5.382812-12-12s5.382812-12 12-12h24c6.617188 0 12 5.382812 12 12v4h16v-4c0-15.441406-12.558594-28-28-28h-4v-16h-16v16h-4c-15.441406 0-28 12.558594-28 28s12.558594 28 28 28h24c6.617188 0 12 5.382812 12 12s-5.382812 12-12 12h-24c-6.617188 0-12-5.382812-12-12v-4zm-8 120h-16v16h16zm320-144c0-22.054688 17.945312-40 40-40s40 17.945312 40 40-17.945312 40-40 40-40-17.945312-40-40zm16 0c0 13.230469 10.769531 24 24 24s24-10.769531 24-24-10.769531-24-24-24-24 10.769531-24 24zm96 40h16v368h-496v-112h51.222656c44.777344 0 89.015625-7.175781 131.488282-21.335938 51.28125-17.097656 98.082031-43.59375 139.113281-78.769531l42.40625-36.351562-135.542969-135.542969 24-24h40l7.898438-7.894531c37.765624-37.769531 85.605468-63.53125 137.382812-74.496094l1.457031-.585937c.039063.097656.085938.183593.125.28125 11.242188-2.3125 22.648438-3.960938 34.191407-4.847657 5.9375-.4335935 11.714843 1.695313 15.914062 5.886719 4.191406 4.191406 6.34375 9.992188 5.886719 15.902344-.886719 11.546875-2.535157 22.953125-4.847657 34.195312.097657.039063.183594.085938.28125.125l-.585937 1.457032c-10.957031 51.777343-36.726563 99.625-74.488281 137.382812l-7.902344 7.90625v40l-8 8v228.6875h80zm-88 108.6875v-28.6875h-44.6875l36.6875 36.6875zm55.246094-216.558594c7.320312 11.519532 17.113281 21.3125 28.632812 28.632813 1.714844-9.136719 3-18.386719 3.714844-27.730469.09375-1.253906-.363281-2.480469-1.25-3.367188-.886719-.886718-2.183594-1.351562-3.375-1.25-9.34375.714844-18.585938 2-27.722656 3.714844zm-143.246094 79.183594v49.375l13.375-13.375c9.871094-9.871094 23-15.3125 36.96875-15.3125 5.785156 0 11.222656 2.257812 15.3125 6.34375 4.085938 4.089844 6.34375 9.527344 6.34375 15.3125 0 13.96875-5.441406 27.097656-15.3125 36.96875l-13.375 13.375h49.375l7.898438-7.894531c33-33.007813 56.253906-74.183594 67.695312-118.914063-17.328125-9.757812-31.714844-24.144531-41.472656-41.472656-44.730469 11.433594-85.90625 34.6875-118.914063 67.695312zm45.375 68c6.847656-6.847656 10.625-15.96875 10.625-25.65625 0-1.511719-.59375-2.929688-1.65625-4-1.070312-1.0625-2.488281-1.65625-4-1.65625-9.6875 0-18.808594 3.777344-25.65625 10.625l-21.375 21.375 20.6875 20.6875zm-98.0625-55.3125 36.6875 36.6875v-44.6875h-28.6875zm52.6875 206.175781v161.824219h80v-212.6875l-8.414062-8.417969-43.347657 37.152344c-9.125 7.816406-18.574219 15.136719-28.238281 22.128906zm-16 11.015625c-25.128906 16.503906-51.832031 30.382813-80 41.335938v109.472656h80zm-176 66.433594v84.375h80v-103.679688c-1.414062.488282-2.800781 1.046876-4.222656 1.519532-24.753906 8.257812-50.097656 14.136718-75.777344 17.785156zm-96 84.375h80v-82.40625c-14.839844 1.542969-29.777344 2.40625-44.777344 2.40625h-35.222656zm16-312.449219v48.449219h16v-55.886719l-2.902344-2.402343c-18.488281-15.261719-29.097656-37.757813-29.097656-61.710938 0-44.113281 35.886719-80 80-80s80 35.886719 80 80c0 23.953125-10.609375 46.449219-29.097656 61.710938l-2.902344 2.402343v55.886719h16v-48.449219c20.382812-18.230469 32-44.09375 32-71.550781 0-52.9375-43.0625-96-96-96s-96 43.0625-96 96c0 27.464844 11.617188 53.328125 32 71.550781zm112 64.449219v16h16v-16zm-64-56h-16v72h16zm32 72h16v-72h-16zm-80 32h16v-16h-16zm400 184h16v-16h-16zm16-48h-16v16h16zm0-32h-16v16h16zm0-168h-16v152h16zm-96 232h-16v16h16zm0-32h-16v16h16zm0-88h-16v72h16zm-96 144v-16h-16v16zm0-88h-16v56h16zm-96 88v-16h-16v16zm0-64h-16v32h16zm-112 56h16v-16h-16zm0-48v16h16v-16zm0 0" fill="url(#a)"/></svg>