
<svg width="1347px" height="651px" viewBox="0 0 1347 651" version="1.1" xmlns="http://www.w3.org/2000/svg" xmlns:xlink="http://www.w3.org/1999/xlink">
    <!-- Generator: Sketch 43.1 (39012) - http://www.bohemiancoding.com/sketch -->
    <desc>Created with Sketch.</desc>
    <defs></defs>
    <g id="Page-1" stroke="none" stroke-width="1" fill="none" fill-rule="evenodd" opacity="0.154325181">
        <g id="-" transform="translate(-62.000000, -91.000000)" fill-rule="nonzero">
            <g id="bgc" transform="translate(62.000000, 91.000000)">
                <g id="user" transform="translate(560.000000, 0.000000)" fill="#FFFFFF">
                    <path d="M14.2657391,15.01115 L10.9429565,13.33955 C10.6295652,13.1817 10.4347826,12.8646 10.4347826,12.5118 L10.4347826,11.32845 C10.5144348,11.23045 10.5982609,11.1188 10.6848696,10.9956 C11.1158261,10.3831 11.4612174,9.7013 11.7123478,8.96595 C12.2031304,8.7395 12.5217391,8.25125 12.5217391,7.7 L12.5217391,6.3 C12.5217391,5.96295 12.3965217,5.6364 12.173913,5.38125 L12.173913,3.5196 C12.1933913,3.3271 12.269913,2.1812 11.4462609,1.23585 C10.7318261,0.4158 9.57252174,0 8,0 C6.42747826,0 5.26817391,0.4158 4.55373913,1.2355 C3.73008696,2.18085 3.8066087,3.3271 3.82608696,3.5196 L3.82608696,5.38125 C3.60347826,5.6364 3.47826087,5.96295 3.47826087,6.3 L3.47826087,7.7 C3.47826087,8.12595 3.6706087,8.5232 3.99895652,8.78815 C4.31756522,10.0576 4.98434783,11.01415 5.2173913,11.3211 L5.2173913,12.47925 C5.2173913,12.81805 5.03373913,13.12885 4.73843478,13.29125 L1.63547826,14.99435 C0.626434783,15.5484 0,16.6103 0,17.7667 L0,18.9 C0,20.5611 5.23304348,21 8,21 C10.7669565,21 16,20.5611 16,18.9 L16,17.83495 C16,16.63165 15.3353043,15.54945 14.2657391,15.01115 Z M15.3043478,18.9 C15.3043478,19.37495 12.7262609,20.3 8,20.3 C3.27373913,20.3 0.695652174,19.37495 0.695652174,18.9 L0.695652174,17.7667 C0.695652174,16.86685 1.18330435,16.0398 1.96834783,15.6093 L5.07130435,13.9062 C5.5906087,13.62095 5.91304348,13.0739 5.91304348,12.47925 L5.91304348,11.0726 L5.832,10.9753 C5.82365217,10.96515 4.97113043,9.9274 4.64591304,8.50255 L4.61426087,8.36395 L4.49565217,8.28695 C4.29426087,8.15605 4.17391304,7.9366 4.17391304,7.7 L4.17391304,6.3 C4.17391304,6.10365 4.25669565,5.9206 4.40695652,5.78375 L4.52173913,5.6798 L4.52173913,3.5 L4.5186087,3.45415 C4.51756522,3.4447 4.39930435,2.4745 5.07686957,1.6968 C5.65321739,1.0353 6.63686957,0.7 8,0.7 C9.35826087,0.7 10.3398261,1.03285 10.9168696,1.6898 C11.594087,2.46015 11.482087,3.44575 11.4813913,3.45415 L11.4782609,5.6798 L11.5930435,5.7841 C11.7433043,5.9206 11.826087,6.10365 11.826087,6.3 L11.826087,7.7 C11.826087,8.00555 11.6271304,8.27295 11.3314783,8.36465 L11.1582609,8.4182 L11.1026087,8.59145 C10.869913,9.3198 10.5384348,9.9925 10.1168696,10.591 C10.0135652,10.73835 9.91304348,10.8689 9.82573913,10.96865 L9.73913043,11.06805 L9.73913043,12.5118 C9.73913043,13.1313 10.0810435,13.68815 10.6316522,13.96535 L13.9544348,15.63695 C14.7871304,16.0559 15.3043478,16.898 15.3043478,17.83495 L15.3043478,18.9 Z" id="Shape"></path>
                </g>
                <g id="user" transform="translate(544.000000, 586.000000)" fill="#FFFFFF">
                    <path d="M14.2657391,15.01115 L10.9429565,13.33955 C10.6295652,13.1817 10.4347826,12.8646 10.4347826,12.5118 L10.4347826,11.32845 C10.5144348,11.23045 10.5982609,11.1188 10.6848696,10.9956 C11.1158261,10.3831 11.4612174,9.7013 11.7123478,8.96595 C12.2031304,8.7395 12.5217391,8.25125 12.5217391,7.7 L12.5217391,6.3 C12.5217391,5.96295 12.3965217,5.6364 12.173913,5.38125 L12.173913,3.5196 C12.1933913,3.3271 12.269913,2.1812 11.4462609,1.23585 C10.7318261,0.4158 9.57252174,0 8,0 C6.42747826,0 5.26817391,0.4158 4.55373913,1.2355 C3.73008696,2.18085 3.8066087,3.3271 3.82608696,3.5196 L3.82608696,5.38125 C3.60347826,5.6364 3.47826087,5.96295 3.47826087,6.3 L3.47826087,7.7 C3.47826087,8.12595 3.6706087,8.5232 3.99895652,8.78815 C4.31756522,10.0576 4.98434783,11.01415 5.2173913,11.3211 L5.2173913,12.47925 C5.2173913,12.81805 5.03373913,13.12885 4.73843478,13.29125 L1.63547826,14.99435 C0.626434783,15.5484 0,16.6103 0,17.7667 L0,18.9 C0,20.5611 5.23304348,21 8,21 C10.7669565,21 16,20.5611 16,18.9 L16,17.83495 C16,16.63165 15.3353043,15.54945 14.2657391,15.01115 Z M15.3043478,18.9 C15.3043478,19.37495 12.7262609,20.3 8,20.3 C3.27373913,20.3 0.695652174,19.37495 0.695652174,18.9 L0.695652174,17.7667 C0.695652174,16.86685 1.18330435,16.0398 1.96834783,15.6093 L5.07130435,13.9062 C5.5906087,13.62095 5.91304348,13.0739 5.91304348,12.47925 L5.91304348,11.0726 L5.832,10.9753 C5.82365217,10.96515 4.97113043,9.9274 4.64591304,8.50255 L4.61426087,8.36395 L4.49565217,8.28695 C4.29426087,8.15605 4.17391304,7.9366 4.17391304,7.7 L4.17391304,6.3 C4.17391304,6.10365 4.25669565,5.9206 4.40695652,5.78375 L4.52173913,5.6798 L4.52173913,3.5 L4.5186087,3.45415 C4.51756522,3.4447 4.39930435,2.4745 5.07686957,1.6968 C5.65321739,1.0353 6.63686957,0.7 8,0.7 C9.35826087,0.7 10.3398261,1.03285 10.9168696,1.6898 C11.594087,2.46015 11.482087,3.44575 11.4813913,3.45415 L11.4782609,5.6798 L11.5930435,5.7841 C11.7433043,5.9206 11.826087,6.10365 11.826087,6.3 L11.826087,7.7 C11.826087,8.00555 11.6271304,8.27295 11.3314783,8.36465 L11.1582609,8.4182 L11.1026087,8.59145 C10.869913,9.3198 10.5384348,9.9925 10.1168696,10.591 C10.0135652,10.73835 9.91304348,10.8689 9.82573913,10.96865 L9.73913043,11.06805 L9.73913043,12.5118 C9.73913043,13.1313 10.0810435,13.68815 10.6316522,13.96535 L13.9544348,15.63695 C14.7871304,16.0559 15.3043478,16.898 15.3043478,17.83495 L15.3043478,18.9 Z" id="Shape"></path>
                </g>
                <g id="windows" transform="translate(732.000000, 31.000000)" fill="#D74758">
                    <path d="M17.6666667,4.66666667 L17.6666667,2.33333333 L15.3333333,2.33333333 L15.3333333,0 L0,0 L0,11.3333333 L2.33333333,11.3333333 L2.33333333,13.6666667 L4.66666667,13.6666667 L4.66666667,16 L20,16 L20,4.66666667 L17.6666667,4.66666667 Z M0.666666667,10.6666667 L0.666666667,0.666666667 L14.6666667,0.666666667 L14.6666667,2.33333333 L2.33333333,2.33333333 L2.33333333,10.6666667 L0.666666667,10.6666667 Z M3,13 L3,11.3333333 L3,3 L15.3333333,3 L17,3 L17,4.66666667 L4.66666667,4.66666667 L4.66666667,13 L3,13 Z M19.3333333,15.3333333 L5.33333333,15.3333333 L5.33333333,13.6666667 L5.33333333,5.33333333 L17.6666667,5.33333333 L19.3333333,5.33333333 L19.3333333,15.3333333 Z" id="Shape"></path>
                </g>
                <g id="windows" transform="translate(12.000000, 464.000000)" fill="#D74758">
                    <path d="M17.6666667,4.66666667 L17.6666667,2.33333333 L15.3333333,2.33333333 L15.3333333,0 L0,0 L0,11.3333333 L2.33333333,11.3333333 L2.33333333,13.6666667 L4.66666667,13.6666667 L4.66666667,16 L20,16 L20,4.66666667 L17.6666667,4.66666667 Z M0.666666667,10.6666667 L0.666666667,0.666666667 L14.6666667,0.666666667 L14.6666667,2.33333333 L2.33333333,2.33333333 L2.33333333,10.6666667 L0.666666667,10.6666667 Z M3,13 L3,11.3333333 L3,3 L15.3333333,3 L17,3 L17,4.66666667 L4.66666667,4.66666667 L4.66666667,13 L3,13 Z M19.3333333,15.3333333 L5.33333333,15.3333333 L5.33333333,13.6666667 L5.33333333,5.33333333 L17.6666667,5.33333333 L19.3333333,5.33333333 L19.3333333,15.3333333 Z" id="Shape"></path>
                </g>
                <g id="windows-2" transform="translate(278.000000, 85.000000)" fill="#FFFFFF">
                    <path d="M22.0833333,5.83333333 L22.0833333,2.91666667 L19.1666667,2.91666667 L19.1666667,0 L0,0 L0,14.1666667 L2.91666667,14.1666667 L2.91666667,17.0833333 L5.83333333,17.0833333 L5.83333333,20 L25,20 L25,5.83333333 L22.0833333,5.83333333 Z M0.833333333,13.3333333 L0.833333333,0.833333333 L18.3333333,0.833333333 L18.3333333,2.91666667 L2.91666667,2.91666667 L2.91666667,13.3333333 L0.833333333,13.3333333 Z M3.75,16.25 L3.75,14.1666667 L3.75,3.75 L19.1666667,3.75 L21.25,3.75 L21.25,5.83333333 L5.83333333,5.83333333 L5.83333333,16.25 L3.75,16.25 Z M24.1666667,19.1666667 L6.66666667,19.1666667 L6.66666667,17.0833333 L6.66666667,6.66666667 L22.0833333,6.66666667 L24.1666667,6.66666667 L24.1666667,19.1666667 Z" id="Shape"></path>
                </g>
                <g id="windows-2" transform="translate(12.000000, 284.000000)" fill="#FFFFFF">
                    <path d="M22.0833333,5.83333333 L22.0833333,2.91666667 L19.1666667,2.91666667 L19.1666667,0 L0,0 L0,14.1666667 L2.91666667,14.1666667 L2.91666667,17.0833333 L5.83333333,17.0833333 L5.83333333,20 L25,20 L25,5.83333333 L22.0833333,5.83333333 Z M0.833333333,13.3333333 L0.833333333,0.833333333 L18.3333333,0.833333333 L18.3333333,2.91666667 L2.91666667,2.91666667 L2.91666667,13.3333333 L0.833333333,13.3333333 Z M3.75,16.25 L3.75,14.1666667 L3.75,3.75 L19.1666667,3.75 L21.25,3.75 L21.25,5.83333333 L5.83333333,5.83333333 L5.83333333,16.25 L3.75,16.25 Z M24.1666667,19.1666667 L6.66666667,19.1666667 L6.66666667,17.0833333 L6.66666667,6.66666667 L22.0833333,6.66666667 L24.1666667,6.66666667 L24.1666667,19.1666667 Z" id="Shape"></path>
                </g>
                <g id="windows-2" transform="translate(266.000000, 566.000000)" fill="#FFFFFF">
                    <path d="M22.0833333,5.83333333 L22.0833333,2.91666667 L19.1666667,2.91666667 L19.1666667,0 L0,0 L0,14.1666667 L2.91666667,14.1666667 L2.91666667,17.0833333 L5.83333333,17.0833333 L5.83333333,20 L25,20 L25,5.83333333 L22.0833333,5.83333333 Z M0.833333333,13.3333333 L0.833333333,0.833333333 L18.3333333,0.833333333 L18.3333333,2.91666667 L2.91666667,2.91666667 L2.91666667,13.3333333 L0.833333333,13.3333333 Z M3.75,16.25 L3.75,14.1666667 L3.75,3.75 L19.1666667,3.75 L21.25,3.75 L21.25,5.83333333 L5.83333333,5.83333333 L5.83333333,16.25 L3.75,16.25 Z M24.1666667,19.1666667 L6.66666667,19.1666667 L6.66666667,17.0833333 L6.66666667,6.66666667 L22.0833333,6.66666667 L24.1666667,6.66666667 L24.1666667,19.1666667 Z" id="Shape"></path>
                </g>
                <g id="windows-2" transform="translate(1316.000000, 7.000000)" fill="#FFFFFF">
                    <path d="M22.0833333,5.83333333 L22.0833333,2.91666667 L19.1666667,2.91666667 L19.1666667,0 L0,0 L0,14.1666667 L2.91666667,14.1666667 L2.91666667,17.0833333 L5.83333333,17.0833333 L5.83333333,20 L25,20 L25,5.83333333 L22.0833333,5.83333333 Z M0.833333333,13.3333333 L0.833333333,0.833333333 L18.3333333,0.833333333 L18.3333333,2.91666667 L2.91666667,2.91666667 L2.91666667,13.3333333 L0.833333333,13.3333333 Z M3.75,16.25 L3.75,14.1666667 L3.75,3.75 L19.1666667,3.75 L21.25,3.75 L21.25,5.83333333 L5.83333333,5.83333333 L5.83333333,16.25 L3.75,16.25 Z M24.1666667,19.1666667 L6.66666667,19.1666667 L6.66666667,17.0833333 L6.66666667,6.66666667 L22.0833333,6.66666667 L24.1666667,6.66666667 L24.1666667,19.1666667 Z" id="Shape"></path>
                </g>
                <g id="wifi-connection-signal-symbol" transform="translate(1310.000000, 623.000000)" fill="#FFFFFF">
                    <path d="M9.51531158,10.3241473 C8.55911256,10.3241473 7.78308809,11.0939791 7.78308809,12.0425478 C7.78308809,12.9911164 8.55914356,13.7609483 9.51531158,13.7609483 C10.4714796,13.7609483 11.2475351,12.9911164 11.2475351,12.0425478 C11.2475351,11.0939791 10.4714796,10.3241473 9.51531158,10.3241473 Z M18.7965481,4.31603343 C16.4800049,1.58148069 13.0969511,0.0137135045 9.51531158,0.0137135045 C5.9336721,0.0137135045 2.55117618,1.58148069 0.234044046,4.31603343 C-0.0737373573,4.67919531 -0.0263768352,5.22106323 0.340295269,5.52635781 C0.502523654,5.661525 0.699435563,5.72800167 0.896316476,5.72800167 C1.14344046,5.72800167 1.38885971,5.62373599 1.56032463,5.42153867 C3.54661501,3.07708287 6.44636215,1.73214475 9.51528059,1.73214475 C12.584199,1.73214475 15.4839462,3.07708287 17.4702055,5.42098521 C17.6417015,5.62318253 17.8870897,5.72744821 18.1342447,5.72744821 C18.3311566,5.72744821 18.5286264,5.66155575 18.6908548,5.52580435 C19.056938,5.22103248 19.1043295,4.6786111 18.7965481,4.31603343 Z M9.51531158,3.45051451 C6.95682055,3.45051451 4.54093801,4.57031747 2.8861093,6.52301596 C2.57835889,6.88617785 2.62568842,7.42804576 2.99236052,7.73334035 C3.15458891,7.86850753 3.35205873,7.93498421 3.54897064,7.93498421 C3.79609462,7.93498421 4.04151387,7.83071853 4.21242088,7.62852121 C5.53640783,6.06536618 7.46957259,5.16891501 9.51534258,5.16891501 C11.5611126,5.16891501 13.4942463,6.06536618 14.8188222,7.62852121 C14.9903181,7.83130273 15.2357064,7.93498421 15.4822414,7.93498421 C15.6791533,7.93498421 15.8766232,7.86909174 16.0388825,7.73334035 C16.4055237,7.42804576 16.4528532,6.88562439 16.1451338,6.52301596 C14.4896852,4.57034821 12.0738026,3.45051451 9.51531158,3.45051451 Z M9.51531158,6.88731551 C7.97941109,6.88731551 6.52952202,7.55921574 5.53755465,8.7305827 C5.22977325,9.09374459 5.27713377,9.6356125 5.64380587,9.94090709 C5.80603426,10.0760743 6.00350408,10.1425202 6.20041599,10.1425202 C6.44753997,10.1425202 6.69295922,10.0382853 6.86386623,9.83608795 C7.52616966,9.05420296 8.49272104,8.60568527 9.51531158,8.60568527 C10.5379021,8.60568527 11.5044845,9.05420296 12.1667569,9.83608795 C12.3382529,10.0388695 12.5836411,10.1425202 12.8302072,10.1425202 C13.0271191,10.1425202 13.2245889,10.0766585 13.3868173,9.94090709 C13.7534894,9.63558175 13.8008189,9.09371384 13.4930685,8.7305827 C12.5010701,7.55921574 11.0511811,6.88731551 9.51531158,6.88731551 Z" id="Shape"></path>
                </g>
                <g id="wifi-connection-signal-symbol" transform="translate(6.000000, 10.000000)" fill="#FFFFFF">
                    <path d="M9.51531158,10.3241473 C8.55911256,10.3241473 7.78308809,11.0939791 7.78308809,12.0425478 C7.78308809,12.9911164 8.55914356,13.7609483 9.51531158,13.7609483 C10.4714796,13.7609483 11.2475351,12.9911164 11.2475351,12.0425478 C11.2475351,11.0939791 10.4714796,10.3241473 9.51531158,10.3241473 Z M18.7965481,4.31603343 C16.4800049,1.58148069 13.0969511,0.0137135045 9.51531158,0.0137135045 C5.9336721,0.0137135045 2.55117618,1.58148069 0.234044046,4.31603343 C-0.0737373573,4.67919531 -0.0263768352,5.22106323 0.340295269,5.52635781 C0.502523654,5.661525 0.699435563,5.72800167 0.896316476,5.72800167 C1.14344046,5.72800167 1.38885971,5.62373599 1.56032463,5.42153867 C3.54661501,3.07708287 6.44636215,1.73214475 9.51528059,1.73214475 C12.584199,1.73214475 15.4839462,3.07708287 17.4702055,5.42098521 C17.6417015,5.62318253 17.8870897,5.72744821 18.1342447,5.72744821 C18.3311566,5.72744821 18.5286264,5.66155575 18.6908548,5.52580435 C19.056938,5.22103248 19.1043295,4.6786111 18.7965481,4.31603343 Z M9.51531158,3.45051451 C6.95682055,3.45051451 4.54093801,4.57031747 2.8861093,6.52301596 C2.57835889,6.88617785 2.62568842,7.42804576 2.99236052,7.73334035 C3.15458891,7.86850753 3.35205873,7.93498421 3.54897064,7.93498421 C3.79609462,7.93498421 4.04151387,7.83071853 4.21242088,7.62852121 C5.53640783,6.06536618 7.46957259,5.16891501 9.51534258,5.16891501 C11.5611126,5.16891501 13.4942463,6.06536618 14.8188222,7.62852121 C14.9903181,7.83130273 15.2357064,7.93498421 15.4822414,7.93498421 C15.6791533,7.93498421 15.8766232,7.86909174 16.0388825,7.73334035 C16.4055237,7.42804576 16.4528532,6.88562439 16.1451338,6.52301596 C14.4896852,4.57034821 12.0738026,3.45051451 9.51531158,3.45051451 Z M9.51531158,6.88731551 C7.97941109,6.88731551 6.52952202,7.55921574 5.53755465,8.7305827 C5.22977325,9.09374459 5.27713377,9.6356125 5.64380587,9.94090709 C5.80603426,10.0760743 6.00350408,10.1425202 6.20041599,10.1425202 C6.44753997,10.1425202 6.69295922,10.0382853 6.86386623,9.83608795 C7.52616966,9.05420296 8.49272104,8.60568527 9.51531158,8.60568527 C10.5379021,8.60568527 11.5044845,9.05420296 12.1667569,9.83608795 C12.3382529,10.0388695 12.5836411,10.1425202 12.8302072,10.1425202 C13.0271191,10.1425202 13.2245889,10.0766585 13.3868173,9.94090709 C13.7534894,9.63558175 13.8008189,9.09371384 13.4930685,8.7305827 C12.5010701,7.55921574 11.0511811,6.88731551 9.51531158,6.88731551 Z" id="Shape"></path>
                </g>
                <g id="user" transform="translate(1331.000000, 280.000000)" fill="#FFFFFF">
                    <path d="M14.2657391,15.01115 L10.9429565,13.33955 C10.6295652,13.1817 10.4347826,12.8646 10.4347826,12.5118 L10.4347826,11.32845 C10.5144348,11.23045 10.5982609,11.1188 10.6848696,10.9956 C11.1158261,10.3831 11.4612174,9.7013 11.7123478,8.96595 C12.2031304,8.7395 12.5217391,8.25125 12.5217391,7.7 L12.5217391,6.3 C12.5217391,5.96295 12.3965217,5.6364 12.173913,5.38125 L12.173913,3.5196 C12.1933913,3.3271 12.269913,2.1812 11.4462609,1.23585 C10.7318261,0.4158 9.57252174,0 8,0 C6.42747826,0 5.26817391,0.4158 4.55373913,1.2355 C3.73008696,2.18085 3.8066087,3.3271 3.82608696,3.5196 L3.82608696,5.38125 C3.60347826,5.6364 3.47826087,5.96295 3.47826087,6.3 L3.47826087,7.7 C3.47826087,8.12595 3.6706087,8.5232 3.99895652,8.78815 C4.31756522,10.0576 4.98434783,11.01415 5.2173913,11.3211 L5.2173913,12.47925 C5.2173913,12.81805 5.03373913,13.12885 4.73843478,13.29125 L1.63547826,14.99435 C0.626434783,15.5484 0,16.6103 0,17.7667 L0,18.9 C0,20.5611 5.23304348,21 8,21 C10.7669565,21 16,20.5611 16,18.9 L16,17.83495 C16,16.63165 15.3353043,15.54945 14.2657391,15.01115 Z M15.3043478,18.9 C15.3043478,19.37495 12.7262609,20.3 8,20.3 C3.27373913,20.3 0.695652174,19.37495 0.695652174,18.9 L0.695652174,17.7667 C0.695652174,16.86685 1.18330435,16.0398 1.96834783,15.6093 L5.07130435,13.9062 C5.5906087,13.62095 5.91304348,13.0739 5.91304348,12.47925 L5.91304348,11.0726 L5.832,10.9753 C5.82365217,10.96515 4.97113043,9.9274 4.64591304,8.50255 L4.61426087,8.36395 L4.49565217,8.28695 C4.29426087,8.15605 4.17391304,7.9366 4.17391304,7.7 L4.17391304,6.3 C4.17391304,6.10365 4.25669565,5.9206 4.40695652,5.78375 L4.52173913,5.6798 L4.52173913,3.5 L4.5186087,3.45415 C4.51756522,3.4447 4.39930435,2.4745 5.07686957,1.6968 C5.65321739,1.0353 6.63686957,0.7 8,0.7 C9.35826087,0.7 10.3398261,1.03285 10.9168696,1.6898 C11.594087,2.46015 11.482087,3.44575 11.4813913,3.45415 L11.4782609,5.6798 L11.5930435,5.7841 C11.7433043,5.9206 11.826087,6.10365 11.826087,6.3 L11.826087,7.7 C11.826087,8.00555 11.6271304,8.27295 11.3314783,8.36465 L11.1582609,8.4182 L11.1026087,8.59145 C10.869913,9.3198 10.5384348,9.9925 10.1168696,10.591 C10.0135652,10.73835 9.91304348,10.8689 9.82573913,10.96865 L9.73913043,11.06805 L9.73913043,12.5118 C9.73913043,13.1313 10.0810435,13.68815 10.6316522,13.96535 L13.9544348,15.63695 C14.7871304,16.0559 15.3043478,16.898 15.3043478,17.83495 L15.3043478,18.9 Z" id="Shape"></path>
                </g>
                <g id="like" transform="translate(1248.000000, 110.000000)" fill="#FFFFFF">
                    <path d="M19.9657692,5.79196 C19.6738462,2.61744 17.3996154,0.31426 14.5534615,0.31426 C12.6573077,0.31426 10.9211538,1.3224 9.94423077,2.93816 C8.97615385,1.3015 7.31115385,0.31388 5.44538462,0.31388 C2.59961538,0.31388 0.325,2.61706 0.0334615385,5.79158 C0.0103846154,5.9318 -0.0842307692,6.66976 0.203461538,7.87322 C0.618076923,9.60906 1.57576923,11.18796 2.97230769,12.43816 L9.93961538,18.68498 L17.0265385,12.43854 C18.4230769,11.18796 19.3807692,9.60944 19.7953846,7.87322 C20.0830769,6.67014 19.9884615,5.93218 19.9657692,5.79196 Z M19.0465385,7.69918 C18.6680769,9.28454 17.7907692,10.72892 16.5119231,11.87348 L9.94423077,17.66278 L3.48923077,11.875 C2.20807692,10.72816 1.33115385,9.28416 0.952307692,7.6988 C0.68,6.55994 0.791923077,5.9166 0.792307692,5.91242 L0.798076923,5.87404 C1.04807692,3.09282 3.00230769,1.07388 5.44538462,1.07388 C7.24807692,1.07388 8.835,2.16828 9.58807692,3.92958 L9.94230769,4.75912 L10.2965385,3.92958 C11.0376923,2.19526 12.7084615,1.07426 14.5538462,1.07426 C16.9965385,1.07426 18.9511538,3.0932 19.2061538,5.91052 C19.2069231,5.9166 19.3188462,6.56032 19.0465385,7.69918 Z" id="Shape"></path>
                </g>
                <g id="like" transform="translate(0.000000, 630.000000)" fill="#FFFFFF">
                    <path d="M21.9623462,6.40164 C21.6412308,2.89296 19.1395769,0.34734 16.0088077,0.34734 C13.9230385,0.34734 12.0132692,1.4616 10.9386538,3.24744 C9.87376923,1.4385 8.04226923,0.34692 5.98992308,0.34692 C2.85957692,0.34692 0.3575,2.89254 0.0368076923,6.40122 C0.0114230769,6.5562 -0.0926538462,7.37184 0.223807692,8.70198 C0.679884615,10.62054 1.73334615,12.36564 3.26953846,13.74744 L10.9335769,20.65182 L18.7291923,13.74786 C20.2653846,12.36564 21.3188462,10.62096 21.7749231,8.70198 C22.0913846,7.37226 21.9873077,6.55662 21.9623462,6.40164 Z M20.9511923,8.50962 C20.5348846,10.26186 19.5698462,11.85828 18.1631154,13.12332 L10.9386538,19.52202 L3.83815385,13.125 C2.42888462,11.85744 1.46426923,10.26144 1.04753846,8.5092 C0.748,7.25046 0.871115385,6.5394 0.871538462,6.53478 L0.877884615,6.49236 C1.15288462,3.41838 3.30253846,1.18692 5.98992308,1.18692 C7.97288462,1.18692 9.7185,2.39652 10.5468846,4.34322 L10.9365385,5.26008 L11.3261923,4.34322 C12.1414615,2.42634 13.9793077,1.18734 16.0092308,1.18734 C18.6961923,1.18734 20.8462692,3.4188 21.1267692,6.53268 C21.1276154,6.5394 21.2507308,7.25088 20.9511923,8.50962 Z" id="Shape"></path>
                </g>
            </g>
        </g>
    </g>
</svg>