
<svg width="45px" height="15px" viewBox="0 0 45 15" version="1.1" xmlns="http://www.w3.org/2000/svg" xmlns:xlink="http://www.w3.org/1999/xlink">
    <!-- Generator: Sketch 43.1 (39012) - http://www.bohemiancoding.com/sketch -->
    <desc>Created with Sketch.</desc>
    <defs></defs>
    <g id="Page-1" stroke="none" stroke-width="1" fill="none" fill-rule="evenodd">
        <g id="-" transform="translate(-1210.000000, -6126.000000)" fill="#BCBCBC">
            <path d="M1212.38623,6137.61377 C1212.38623,6137.92302 1212.49447,6138.18587 1212.71094,6138.40234 C1212.92741,6138.61882 1213.19027,6138.72705 1213.49951,6138.72705 L1216.19922,6138.72705 C1216.50847,6138.72705 1216.77441,6138.83838 1216.99707,6139.06104 C1217.21973,6139.28369 1217.33105,6139.54964 1217.33105,6139.85889 L1217.33105,6139.87744 C1217.33105,6140.19287 1217.21973,6140.45573 1216.99707,6140.66602 C1216.77441,6140.88867 1216.50847,6141 1216.19922,6141 L1213.49951,6141 C1212.56559,6141 1211.76774,6140.66911 1211.10596,6140.00732 C1210.44417,6139.34554 1210.11328,6138.54769 1210.11328,6137.61377 L1210.11328,6127.63135 C1210.11328,6127.3221 1210.22461,6127.05615 1210.44727,6126.8335 C1210.66992,6126.61702 1210.93278,6126.50879 1211.23584,6126.50879 L1211.26367,6126.50879 C1211.56673,6126.50879 1211.82959,6126.61702 1212.05225,6126.8335 C1212.2749,6127.05615 1212.38623,6127.3221 1212.38623,6127.63135 L1212.38623,6137.61377 Z M1223.41699,6132.604 C1222.56347,6132.604 1221.83675,6132.90397 1221.23682,6133.50391 C1220.64306,6134.10384 1220.34619,6134.83056 1220.34619,6135.68408 L1220.34619,6135.74902 L1225.53223,6133.42041 C1225.07454,6132.87614 1224.36947,6132.604 1223.41699,6132.604 Z M1228.26904,6133.42969 C1228.34326,6133.58431 1228.38037,6133.74202 1228.38037,6133.90283 C1228.38037,6134.03272 1228.35563,6134.1626 1228.30615,6134.29248 C1228.20101,6134.58317 1228.00309,6134.79346 1227.7124,6134.92334 C1226.84651,6135.31299 1225.7085,6135.82633 1224.29834,6136.46338 C1222.54801,6137.25505 1221.52132,6137.722 1221.21826,6137.86426 C1221.68832,6138.45801 1222.42122,6138.75488 1223.41699,6138.75488 C1224.07878,6138.75488 1224.67871,6138.56006 1225.2168,6138.17041 C1225.74252,6137.78694 1226.11051,6137.29216 1226.3208,6136.68604 C1226.50016,6136.17887 1226.85888,6135.92529 1227.39697,6135.92529 C1227.78044,6135.92529 1228.08659,6136.0861 1228.31543,6136.40771 C1228.45768,6136.60563 1228.52881,6136.81282 1228.52881,6137.0293 C1228.52881,6137.15918 1228.50407,6137.29215 1228.45459,6137.42822 C1228.08968,6138.48585 1227.44955,6139.33935 1226.53418,6139.98877 C1225.60644,6140.66293 1224.56739,6141 1223.41699,6141 C1221.94498,6141 1220.68637,6140.47738 1219.64111,6139.43213 C1218.59586,6138.38688 1218.07324,6137.12826 1218.07324,6135.65625 C1218.07324,6134.18424 1218.59586,6132.92562 1219.64111,6131.88037 C1220.68637,6130.83512 1221.94498,6130.3125 1223.41699,6130.3125 C1224.4808,6130.3125 1225.45182,6130.60319 1226.33008,6131.18457 C1227.20215,6131.75358 1227.84847,6132.50195 1228.26904,6133.42969 Z M1235.26416,6132.604 C1234.41064,6132.604 1233.68392,6132.90397 1233.08398,6133.50391 C1232.49023,6134.10384 1232.19336,6134.83056 1232.19336,6135.68408 L1232.19336,6135.74902 L1237.37939,6133.42041 C1236.92171,6132.87614 1236.21664,6132.604 1235.26416,6132.604 Z M1240.11621,6133.42969 C1240.19043,6133.58431 1240.22754,6133.74202 1240.22754,6133.90283 C1240.22754,6134.03272 1240.2028,6134.1626 1240.15332,6134.29248 C1240.04818,6134.58317 1239.85026,6134.79346 1239.55957,6134.92334 C1238.69368,6135.31299 1237.55567,6135.82633 1236.14551,6136.46338 C1234.39517,6137.25505 1233.36849,6137.722 1233.06543,6137.86426 C1233.53548,6138.45801 1234.26839,6138.75488 1235.26416,6138.75488 C1235.92595,6138.75488 1236.52588,6138.56006 1237.06396,6138.17041 C1237.58968,6137.78694 1237.95768,6137.29216 1238.16797,6136.68604 C1238.34733,6136.17887 1238.70605,6135.92529 1239.24414,6135.92529 C1239.62761,6135.92529 1239.93376,6136.0861 1240.1626,6136.40771 C1240.30485,6136.60563 1240.37598,6136.81282 1240.37598,6137.0293 C1240.37598,6137.15918 1240.35124,6137.29215 1240.30176,6137.42822 C1239.93685,6138.48585 1239.29672,6139.33935 1238.38135,6139.98877 C1237.45361,6140.66293 1236.41456,6141 1235.26416,6141 C1233.79215,6141 1232.53353,6140.47738 1231.48828,6139.43213 C1230.44303,6138.38688 1229.92041,6137.12826 1229.92041,6135.65625 C1229.92041,6134.18424 1230.44303,6132.92562 1231.48828,6131.88037 C1232.53353,6130.83512 1233.79215,6130.3125 1235.26416,6130.3125 C1236.32797,6130.3125 1237.29899,6130.60319 1238.17725,6131.18457 C1239.04932,6131.75358 1239.69564,6132.50195 1240.11621,6133.42969 Z M1243.19629,6126.50879 C1243.49935,6126.50879 1243.76221,6126.61702 1243.98486,6126.8335 C1244.20752,6127.05615 1244.31885,6127.3221 1244.31885,6127.63135 L1244.31885,6130.3125 L1245.71045,6130.3125 C1246.01351,6130.3125 1246.27637,6130.42383 1246.49902,6130.64648 C1246.72168,6130.86914 1246.83301,6131.13509 1246.83301,6131.44434 L1246.83301,6131.46289 C1246.83301,6131.77832 1246.72168,6132.04118 1246.49902,6132.25146 C1246.27637,6132.47412 1246.01351,6132.58545 1245.71045,6132.58545 L1244.31885,6132.58545 L1244.31885,6138.08691 C1244.31885,6138.26628 1244.3807,6138.41781 1244.50439,6138.5415 C1244.62809,6138.6652 1244.78271,6138.72705 1244.96826,6138.72705 L1245.71045,6138.72705 C1246.01351,6138.72705 1246.27637,6138.83838 1246.49902,6139.06104 C1246.72168,6139.28369 1246.83301,6139.54964 1246.83301,6139.85889 L1246.83301,6139.87744 C1246.83301,6140.19287 1246.72168,6140.45573 1246.49902,6140.66602 C1246.27637,6140.88867 1246.01351,6141 1245.71045,6141 L1244.96826,6141 C1244.16422,6141 1243.47461,6140.7155 1242.89941,6140.14648 C1242.3304,6139.57129 1242.0459,6138.88477 1242.0459,6138.08691 L1242.0459,6127.63135 C1242.0459,6127.3221 1242.15723,6127.05615 1242.37988,6126.8335 C1242.60254,6126.61702 1242.8654,6126.50879 1243.16846,6126.50879 L1243.19629,6126.50879 Z M1251.00781,6132.58545 C1250.73568,6132.58545 1250.50684,6132.67822 1250.32129,6132.86377 C1250.13574,6133.0555 1250.04297,6133.28434 1250.04297,6133.55029 C1250.04297,6133.92139 1250.22233,6134.19971 1250.58105,6134.38525 C1250.70475,6134.45329 1251.22119,6134.60791 1252.13037,6134.84912 C1252.86638,6135.05941 1253.41374,6135.33463 1253.77246,6135.6748 C1254.28581,6136.16341 1254.54248,6136.85921 1254.54248,6137.76221 C1254.54248,6138.65284 1254.22705,6139.41666 1253.59619,6140.05371 C1252.95914,6140.68457 1252.19532,6141 1251.30469,6141 L1248.8833,6141 C1248.58024,6141 1248.31738,6140.88867 1248.09473,6140.66602 C1247.87207,6140.45573 1247.76074,6140.19287 1247.76074,6139.87744 L1247.76074,6139.85889 C1247.76074,6139.54964 1247.87207,6139.28369 1248.09473,6139.06104 C1248.31738,6138.83838 1248.58024,6138.72705 1248.8833,6138.72705 L1251.39746,6138.72705 C1251.6696,6138.72705 1251.89844,6138.63428 1252.08398,6138.44873 C1252.26953,6138.26318 1252.3623,6138.03434 1252.3623,6137.76221 C1252.3623,6137.42204 1252.18604,6137.16537 1251.8335,6136.99219 C1251.74072,6136.94889 1251.2212,6136.79427 1250.2749,6136.52832 C1249.5389,6136.31185 1248.99154,6136.02735 1248.63281,6135.6748 C1248.11946,6135.17383 1247.86279,6134.46566 1247.86279,6133.55029 C1247.86279,6132.65966 1248.17822,6131.89893 1248.80908,6131.26807 C1249.44613,6130.63102 1250.20996,6130.3125 1251.10059,6130.3125 L1252.80762,6130.3125 C1253.11686,6130.3125 1253.38281,6130.42383 1253.60547,6130.64648 C1253.82813,6130.86914 1253.93945,6131.13509 1253.93945,6131.44434 L1253.93945,6131.46289 C1253.93945,6131.77832 1253.82813,6132.04118 1253.60547,6132.25146 C1253.38281,6132.47412 1253.11686,6132.58545 1252.80762,6132.58545 L1251.00781,6132.58545 Z" id="Leets"></path>
        </g>
    </g>
</svg>