<svg xmlns="http://www.w3.org/2000/svg" width="670" height="670" viewBox="0 0 670 670"><path fill="none" stroke="#000" stroke-miterlimit="50" stroke-width="2" d="M169 333c0-98.86 80.14-179 179-179s179 80.14 179 179-80.14 179-179 179-179-80.14-179-179z"/><path fill="none" stroke="#000" stroke-miterlimit="50" stroke-width="2" d="M91 338C91 200.48 202.48 89 340 89c137.52 0 249 111.48 249 249 0 137.52-111.48 249-249 249-137.52 0-249-111.48-249-249z"/><path fill="none" stroke="#000" stroke-miterlimit="50" stroke-width="2" d="M1 335C1 150.54 150.54 1 335 1s334 149.54 334 334-149.54 334-334 334S1 519.46 1 335z"/></svg>