<svg
    xmlns:svg="http://www.w3.org/2000/svg"
    xmlns="http://www.w3.org/2000/svg"
    xmlns:xlink="http://www.w3.org/1999/xlink"
    viewBox="0 0 2225 400"
    preserveAspectRatio="none"
>
  <g transform="translate(-631.15272,153.5588)">
    <path
       class="logo-primary"
       style="fill:#75B028"
       d="m 1226.7659,142.505 0,-95.00003 23,0 23,0 0,8.5 c 0,4.675 0.2503,8.5 0.5561,8.5 0.3059,0 3.3434,-2.27163 6.75,-5.04807 7.2942,-5.94481 19.5734,-12.23413 28.6939,-14.69682 9.7169,-2.62371 32.7269,-2.30299 43.442,0.6055 13.6571,3.70707 21.9708,8.47634 31.558,18.10378 9.9111,9.95263 14.7672,18.73016 18.1289,32.76904 2.4485,10.225 2.8834,27.9574 0.9386,38.2666 -5.4057,28.6542 -26.2193,49.3985 -55.6796,55.4942 -23.6399,4.8914 -51.3806,-0.7614 -65.5413,-13.3556 -2.5594,-2.2762 -4.9219,-4.1386 -5.25,-4.1386 -0.3281,0 -0.5966,14.625 -0.5966,32.5 l 0,32.5 -24.5,0 -24.5,0 0,-95 z m 103.2173,19.2698 c 14.6946,-6.63 22.7532,-22.4863 22.7532,-44.7698 0,-21.72477 -6.8382,-35.8525 -20.7574,-42.88497 -14.8071,-7.48107 -33.517,-5.11536 -44.933,5.68139 -8.833,8.35387 -13.2453,20.74728 -13.2453,37.20358 0,24.6002 10.6277,42.0722 28.3479,46.6041 1.7146,0.4385 7.6173,0.684 13.1173,0.5456 7.6617,-0.1928 11.1031,-0.7493 14.7173,-2.3799 z m 134.7827,29.558 c -20.2825,-1.6085 -33.9922,-10.0389 -41.13,-25.292 -5.5325,-11.8228 -5.8336,-15.3869 -5.8526,-69.2858 l -0.017,-49.25003 24.4386,0 24.4386,0 0.3272,47.75 c 0.3218,46.96563 0.3646,47.84313 2.6022,53.41703 2.9258,7.288 5.3958,10.3612 10.5379,13.1109 3.6026,1.9264 5.6857,2.2221 15.6555,2.2221 10.5737,0 11.9138,-0.2183 16.6378,-2.7101 6.3631,-3.3562 11.646,-9.4011 14.6042,-16.7106 2.2127,-5.4673 2.264,-6.4978 2.5549,-51.32933 l 0.297,-45.75 24.953,0 24.9531,0 0,69.50003 0,69.5 -25,0 -25,0 0,-8 c 0,-4.4 -0.2227,-8 -0.495,-8 -0.2722,0 -3.3097,2.2755 -6.75,5.0566 -15.4656,12.5026 -34.2588,17.6345 -57.755,15.7712 z m 353.5,0.054 c -16.6706,-1.2132 -30.9911,-6.9821 -38.4662,-15.4959 -12.283,-13.9894 -11.6022,-36.1328 1.5024,-48.869 11.3254,-11.0069 29.4094,-16.166 71.9638,-20.5302 27.3477,-2.8047 31.4503,-4.9245 31.4853,-16.26855 0.019,-6.24226 -1.8476,-10.51181 -6.309,-14.42895 -8.4727,-7.4391 -29.7086,-8.20606 -41.9989,-1.51685 -5.3041,2.8869 -9.0709,8.22595 -10.2142,14.47792 l -0.6858,3.75 -23.45,0 -23.4499,0 0.6917,-4.75 c 0.943,-6.47538 3.8507,-14.03135 7.5469,-19.61161 11.6327,-17.56217 40.4737,-26.86952 78.3839,-25.2955 23.4074,0.97187 38.7163,4.88972 50.7717,12.99351 7.7691,5.22252 12.9665,12.07449 15.7683,20.78792 2.1304,6.62565 2.1697,7.76175 1.8187,52.57381 -0.3423,43.7087 -0.2701,45.9805 1.5803,49.7101 1.1782,2.3747 3.042,4.3245 4.75,4.9692 1.5461,0.5836 2.811,1.4124 2.811,1.8418 0,0.4294 -11.6633,0.7808 -25.9185,0.7808 l -25.9184,0 -2.1631,-6.5 c -1.1897,-3.575 -2.6173,-6.5 -3.1726,-6.5 -0.5552,0 -2.7625,1.5005 -4.905,3.3344 -8.3476,7.1453 -25.0989,13.2677 -38.9224,14.2258 -4.125,0.2859 -8.85,0.6389 -10.5,0.7844 -1.65,0.1456 -7.5,-0.063 -13,-0.4631 z m 45.6471,-29.7581 c 7.5096,-2.9125 14.0992,-8.8836 17.5201,-15.8757 2.3225,-4.7469 2.8441,-7.2898 3.1725,-15.4644 0.218,-5.4294 -0.01,-9.7833 -0.5081,-9.7833 -0.4955,0 -3.49,0.91 -6.6545,2.0222 -3.1645,1.1122 -12.8239,3.1149 -21.4654,4.4504 -17.1869,2.6561 -22.9243,4.308 -27.7523,7.9905 -7.8546,5.9911 -8.6107,17.565 -1.5641,23.9421 1.155,1.0453 4.4636,2.7422 7.3524,3.7709 7.2155,2.5696 21.8921,2.0528 29.8994,-1.0527 z m 503.8529,29.7477 c -22.535,-1.539 -37.8236,-9.6355 -44.6879,-23.6658 -3.8322,-7.8325 -4.4248,-20.263 -1.3543,-28.407 5.8242,-15.4475 22.2605,-24.5762 53.5422,-29.7371 3.3,-0.5445 14.775,-1.9065 25.5,-3.0267 22.5005,-2.3501 25.7917,-3.099 29.3766,-6.6838 2.3465,-2.3465 2.6234,-3.3852 2.6234,-9.83921 0,-9.16192 -2.212,-12.8688 -10,-16.75839 -10.7471,-5.36741 -30.3776,-4.35743 -39.4915,2.03182 -4.7439,3.32567 -8.4692,9.45192 -8.492,13.96505 l -0.016,3.25 -23.6377,0 -23.6377,0 0.6459,-5.75 c 0.3873,-3.44774 2.045,-8.61067 4.1403,-12.89466 9.9498,-20.34359 35.6563,-31.34222 73.2786,-31.35252 41.6657,-0.0114 66.5872,11.16943 74.8219,33.56827 1.6539,4.49881 1.8154,9.13234 1.8504,53.09954 0.038,47.3123 0.076,48.2211 2.1347,51 1.153,1.5562 3.0735,3.3248 4.2677,3.9304 1.1942,0.6056 2.4633,1.3931 2.8203,1.75 0.3569,0.3569 -11.2843,0.649 -25.8693,0.649 l -26.5183,0 -1.7594,-6.5 c -0.9677,-3.575 -2.1788,-6.5 -2.6914,-6.5 -0.5125,0 -3.275,1.7476 -6.1389,3.8836 -14.8786,11.0969 -35.0337,15.7409 -60.7071,13.9875 z m 45.5,-30.2139 c 6.6938,-3.0777 13.7397,-9.3522 16.4593,-14.6572 0.9869,-1.925 2.2997,-5.8847 2.9175,-8.7993 1.3172,-6.2144 1.4959,-17.2007 0.2798,-17.2007 -0.4639,0 -3.4986,0.9135 -6.7438,2.03 -3.2452,1.1165 -13.2296,3.1266 -22.1875,4.4668 -17.57,2.6289 -23.7769,4.7201 -28.9946,9.7693 -6.923,6.6992 -6.1926,18.1221 1.4611,22.8524 6.1101,3.7763 11.2261,4.8754 21.3082,4.5778 7.8792,-0.2326 10.5237,-0.7511 15.5,-3.0391 z M 804.76351,169.7553 C 804.75551,111.4085 795.42383,79.96369 770.84194,55.45042 755.10183,39.75425 735.80059,30.35916 708.02247,24.87234 702.55225,23.79184 691.2021,23.186 669.51594,22.81696 l -30.74999,-0.52328 0,-77.8942 0,-77.89421 160.49999,0 160.5,0 0,160.5 0,160.50003 -77.5,0 -77.5,0 -0.002,-17.75 z m 89.7575,-143.00003 -0.25507,-94.75 -94.75,-0.25507 -94.75,-0.25508 0,13.45977 0,13.45975 3.75,0.61123 c 40.71882,6.63689 66.61038,16.76275 92.25271,36.07885 33.59109,25.30381 56.30417,64.43025 64.75254,111.54518 l 2.66377,14.8554 13.29556,0 13.29557,0 -0.25508,-94.75003 z m 109.24489,63.75 0,-96 98,0 98,0 0,96 0,96.00003 -27,0 -27,0 0,-77.5 0,-77.50003 -44,0 -44,0 0,77.50003 0,77.5 -27,0 -27,0 0,-96.00003 z m 598,26.48553 0,-69.62514 59.75,0.37776 c 57.275,0.36212 60.0677,0.46602 67.4191,2.5082 9.7349,2.70433 14.3437,5.08004 19.2165,9.90567 5.6798,5.62484 7.9384,11.3522 8.0243,20.34798 0.06,6.25681 -0.3876,8.43828 -2.6989,13.16054 -4.5576,9.31159 -13.4654,15.79589 -25.961,18.89779 -2.6125,0.6485 -4.75,1.4934 -4.75,1.8775 0,0.3842 3.3092,1.4786 7.3537,2.4321 14.1765,3.3421 24.5636,9.7533 28.6545,17.6864 2.5661,4.9764 4.2563,15.3121 3.4915,21.3519 -1.8247,14.4119 -10.3968,22.8428 -28.3306,27.8644 -7.3997,2.0719 -9.8558,2.1595 -69.9191,2.4937 l -62.25,0.3464 0,-69.6252 z m 99.3033,40.6137 c 6.4398,-2.0703 9.8866,-5.9414 10.3806,-11.6586 0.8636,-9.9958 -5.2578,-15.6622 -18.8224,-17.4232 -4.0488,-0.5256 -14.899,-0.9696 -24.1115,-0.9866 l -16.75,-0.031 0,16.0819 0,16.0818 22.75,-0.4208 c 14.0209,-0.2594 24.2093,-0.89 26.5533,-1.6436 z m -3.1243,-57.7916 c 11.5927,-5.28308 9.8208,-19.62632 -2.8757,-23.2781 -2.0918,-0.60165 -12.6908,-1.37421 -23.5533,-1.7168 l -19.75,-0.62288 0,14.25612 0,14.25616 20.75,-0.3811 c 18.5637,-0.341 21.243,-0.6058 25.429,-2.5134 z m 297.821,30.6924 0,-56.00003 -27.5,0 -27.5,0 0,-13.5 0,-13.5 80,0 80,0 0,13.5 0,13.5 -27.5,0 -27.5,0 0,56.00003 0,56 -25,0 -25,0 0,-56 z m 116,-40.00003 0,-96 89.5,0 89.5,0 0,18.5 0,18.5 -63,0 -63,0 0,17.40418 0,17.40418 39.75,0.48337 c 41.8726,0.50918 46.2057,0.92142 61.2214,5.82426 23.0578,7.52868 38.2379,23.20856 41.9371,43.31764 5.0031,27.1973 -5.2707,48.4569 -28.9348,59.8754 -20.6883,9.9825 -27.4706,10.6779 -104.2237,10.6851 l -62.75,0.01 0,-96.00003 z m 120.0458,57.79673 c 13.0832,-3.3954 18.9718,-9.7357 18.9322,-20.3846 -0.04,-10.7826 -4.7048,-17.05 -16.1689,-21.7239 -4.9968,-2.0371 -7.2062,-2.1836 -37.5591,-2.4891 l -32.25,-0.3246 0,23.6685 0,23.6686 30.75,-0.4878 c 22.1425,-0.3513 32.3024,-0.8907 36.2958,-1.9271 z m 272.9542,-31.2967 0,-69.50003 25,0 25,0 0,26.5 0,26.50003 30.5,0 30.5,0 0,-26.50003 0,-26.5 24.5,0 24.5,0 0,69.50003 0,69.5 -24.5,0 -24.5,0 0,-29.5 0,-29.5 -30.5,0 -30.5,0 0,29.5 0,29.5 -25,0 -25,0 0,-69.5 z m 183,0 0,-69.50003 24.5,0 24.5,0 0,28 c 0,22.36823 0.2626,28.00003 1.3055,28.00003 0.718,0 13.3575,-12.60003 28.0878,-28.00003 l 26.7823,-28 27.1513,0 27.1514,0 -5.4892,5.34081 c -3.019,2.93745 -18.435,17.61424 -34.2577,32.61509 l -28.7687,27.27423 13.2687,13.8734 c 7.2977,7.6303 23.3345,24.2285 35.6373,36.8849 l 22.3687,23.0116 -28.5607,0 -28.5607,0 -27.0997,-30.5 c -14.9048,-16.775 -27.5309,-30.5 -28.058,-30.5 -0.5901,0 -0.9583,11.718 -0.9583,30.5 l 0,30.5 -24.5,0 -24.5,0 0,-69.5 z"/>
    <path class="logo-secondary" style="fill:#000"  d="m 638.76594,125.005 0,-62.50003 62.5,0 62.50001,0 0,62.50003 0,62.5 -62.50001,0 -62.5,0 0,-62.5 z"/>
  </g>
</svg>