
<svg width="1440px" height="670px" viewBox="0 0 1440 670" version="1.1" xmlns="http://www.w3.org/2000/svg" xmlns:xlink="http://www.w3.org/1999/xlink">
    <!-- Generator: Sketch 43.1 (39012) - http://www.bohemiancoding.com/sketch -->
    <desc>Created with Sketch.</desc>
    <defs>
        <linearGradient x1="50%" y1="117.210575%" x2="67.746775%" y2="-179.725427%" id="linearGradient-1">
            <stop stop-color="#3023AE" offset="0%"></stop>
            <stop stop-color="#C96DD8" offset="100%"></stop>
        </linearGradient>
    </defs>
    <g id="Page-1" stroke="none" stroke-width="1" fill="none" fill-rule="evenodd">
        <g id="-" transform="translate(0.000000, -2545.000000)">
            <g id="договор" transform="translate(0.000000, 2545.000000)" fill="url(#linearGradient-1)">
                <rect id="Combined-Shape" x="0" y="0.305382373" width="1531" height="661"></rect>
            </g>
            <g id="элементы" opacity="0.406306612" transform="translate(54.000000, 2634.000000)">
                <g id="windows" transform="translate(213.000000, 423.000000)" fill-rule="nonzero" fill="#D74758">
                    <path d="M17.6666667,4.66666667 L17.6666667,2.33333333 L15.3333333,2.33333333 L15.3333333,0 L0,0 L0,11.3333333 L2.33333333,11.3333333 L2.33333333,13.6666667 L4.66666667,13.6666667 L4.66666667,16 L20,16 L20,4.66666667 L17.6666667,4.66666667 Z M0.666666667,10.6666667 L0.666666667,0.666666667 L14.6666667,0.666666667 L14.6666667,2.33333333 L2.33333333,2.33333333 L2.33333333,10.6666667 L0.666666667,10.6666667 Z M3,13 L3,11.3333333 L3,3 L15.3333333,3 L17,3 L17,4.66666667 L4.66666667,4.66666667 L4.66666667,13 L3,13 Z M19.3333333,15.3333333 L5.33333333,15.3333333 L5.33333333,13.6666667 L5.33333333,5.33333333 L17.6666667,5.33333333 L19.3333333,5.33333333 L19.3333333,15.3333333 Z" id="Shape"></path>
                </g>
                <g id="windows-2" transform="translate(858.000000, 455.000000)" fill-rule="nonzero" fill="#FFFFFF">
                    <path d="M17.6666667,4.66666667 L17.6666667,2.33333333 L15.3333333,2.33333333 L15.3333333,0 L0,0 L0,11.3333333 L2.33333333,11.3333333 L2.33333333,13.6666667 L4.66666667,13.6666667 L4.66666667,16 L20,16 L20,4.66666667 L17.6666667,4.66666667 Z M0.666666667,10.6666667 L0.666666667,0.666666667 L14.6666667,0.666666667 L14.6666667,2.33333333 L2.33333333,2.33333333 L2.33333333,10.6666667 L0.666666667,10.6666667 Z M3,13 L3,11.3333333 L3,3 L15.3333333,3 L17,3 L17,4.66666667 L4.66666667,4.66666667 L4.66666667,13 L3,13 Z M19.3333333,15.3333333 L5.33333333,15.3333333 L5.33333333,13.6666667 L5.33333333,5.33333333 L17.6666667,5.33333333 L19.3333333,5.33333333 L19.3333333,15.3333333 Z" id="Shape"></path>
                </g>
                <g id="windows-2" transform="translate(903.000000, 0.000000)" fill-rule="nonzero" fill="#FFFFFF">
                    <path d="M17.6666667,4.66666667 L17.6666667,2.33333333 L15.3333333,2.33333333 L15.3333333,0 L0,0 L0,11.3333333 L2.33333333,11.3333333 L2.33333333,13.6666667 L4.66666667,13.6666667 L4.66666667,16 L20,16 L20,4.66666667 L17.6666667,4.66666667 Z M0.666666667,10.6666667 L0.666666667,0.666666667 L14.6666667,0.666666667 L14.6666667,2.33333333 L2.33333333,2.33333333 L2.33333333,10.6666667 L0.666666667,10.6666667 Z M3,13 L3,11.3333333 L3,3 L15.3333333,3 L17,3 L17,4.66666667 L4.66666667,4.66666667 L4.66666667,13 L3,13 Z M19.3333333,15.3333333 L5.33333333,15.3333333 L5.33333333,13.6666667 L5.33333333,5.33333333 L17.6666667,5.33333333 L19.3333333,5.33333333 L19.3333333,15.3333333 Z" id="Shape"></path>
                </g>
                <g id="windows" transform="translate(63.000000, 43.000000)" fill-rule="nonzero" fill="#D74758">
                    <path d="M17.6666667,4.66666667 L17.6666667,2.33333333 L15.3333333,2.33333333 L15.3333333,0 L0,0 L0,11.3333333 L2.33333333,11.3333333 L2.33333333,13.6666667 L4.66666667,13.6666667 L4.66666667,16 L20,16 L20,4.66666667 L17.6666667,4.66666667 Z M0.666666667,10.6666667 L0.666666667,0.666666667 L14.6666667,0.666666667 L14.6666667,2.33333333 L2.33333333,2.33333333 L2.33333333,10.6666667 L0.666666667,10.6666667 Z M3,13 L3,11.3333333 L3,3 L15.3333333,3 L17,3 L17,4.66666667 L4.66666667,4.66666667 L4.66666667,13 L3,13 Z M19.3333333,15.3333333 L5.33333333,15.3333333 L5.33333333,13.6666667 L5.33333333,5.33333333 L17.6666667,5.33333333 L19.3333333,5.33333333 L19.3333333,15.3333333 Z" id="Shape"></path>
                </g>
                <polyline id="Path-3" stroke="#FFFFFF" stroke-width="2" points="57 709 50.9333333 720 57.5333333 720 52.2 731"></polyline>
                <polyline id="Path-3" stroke="#FFFFFF" stroke-width="2" points="628.066667 23 622 34 628.6 34 623.266667 45"></polyline>
                <g id="placeholder-2" transform="translate(978.000000, 540.000000)" fill-rule="nonzero" fill="#D74758">
                    <path d="M10.0292308,5.89090909 C8.05025641,5.89090909 6.43948718,7.43285455 6.43948718,9.32727273 C6.43948718,11.2216909 8.05025641,12.7636364 10.0292308,12.7636364 C12.0082051,12.7636364 13.6189744,11.2216909 13.6189744,9.32727273 C13.6189744,7.43285455 12.0082051,5.89090909 10.0292308,5.89090909 Z M10.0292308,11.7818182 C8.61538462,11.7818182 7.46512821,10.6807091 7.46512821,9.32727273 C7.46512821,7.97383636 8.61538462,6.87272727 10.0292308,6.87272727 C11.4430769,6.87272727 12.5933333,7.97383636 12.5933333,9.32727273 C12.5933333,10.6807091 11.4430769,11.7818182 10.0292308,11.7818182 Z" id="Shape"></path>
                    <path d="M16.8923077,2.75743636 C15.0348718,0.979363636 12.5651282,0 9.93846154,0 C7.31128205,0 4.84205128,0.979363636 2.98461538,2.75743636 C-0.452820513,6.04750909 -0.88,12.2378727 2.05948718,15.9884182 L9.93846154,26.8807091 L17.805641,16.0036364 C20.7569231,12.2378727 20.3297436,6.04750909 16.8923077,2.75743636 Z M16.9738462,15.4297636 L9.93846154,25.1556545 L2.89179487,15.4145455 C0.225641026,12.0115636 0.607692308,6.42109091 3.71025641,3.45158182 C5.37384615,1.85907273 7.58564103,0.981818182 9.93846154,0.981818182 C12.2912821,0.981818182 14.5030769,1.85907273 16.1671795,3.45158182 C19.2697436,6.42109091 19.6517949,12.0115636 16.9738462,15.4297636 Z" id="Shape"></path>
                </g>
                <g id="cancel-music-2" transform="translate(1143.000000, 473.000000)" fill="#FFFFFF">
                    <path d="M7.42557746,5.99949296 L11.703662,1.72140845 C12.0974648,1.32760563 12.0974648,0.689126761 11.703662,0.295380282 C11.3098592,-0.0984225352 10.6714366,-0.0984225352 10.2776338,0.295380282 L5.99949296,4.57352113 L1.72135211,0.295323944 C1.3275493,-0.0984788732 0.689126761,-0.0984788732 0.295323944,0.295323944 C-0.0984225352,0.689126761 -0.0984225352,1.32760563 0.295323944,1.72135211 L4.57346479,5.99943662 L0.295323944,10.2775775 C-0.0984225352,10.6713803 -0.0984225352,11.3098592 0.295323944,11.7036056 C0.689126761,12.0974085 1.3275493,12.0974085 1.72135211,11.7036056 L5.99949296,7.42546479 L10.2776338,11.7036056 C10.6713803,12.0974085 11.3098592,12.0974085 11.703662,11.7036056 C12.0974648,11.3098028 12.0974648,10.6713803 11.703662,10.2775775 L7.42557746,5.99949296 Z" id="Shape"></path>
                </g>
                <g id="cancel-music" transform="translate(475.000000, 475.000000)" fill="#D74758">
                    <path d="M6.80677934,5.49953521 L10.7283568,1.57795775 C11.0893427,1.21697183 11.0893427,0.631699531 10.7283568,0.270765258 C10.3673709,-0.0902206573 9.78215023,-0.0902206573 9.42116432,0.270765258 L5.49953521,4.19239437 L1.5779061,0.270713615 C1.21692019,-0.0902723005 0.631699531,-0.0902723005 0.270713615,0.270713615 C-0.0902206573,0.631699531 -0.0902206573,1.21697183 0.270713615,1.5779061 L4.19234272,5.49948357 L0.270713615,9.42111268 C-0.0902206573,9.78209859 -0.0902206573,10.3673709 0.270713615,10.7283052 C0.631699531,11.0892911 1.21692019,11.0892911 1.5779061,10.7283052 L5.49953521,6.80667606 L9.42116432,10.7283052 C9.78209859,11.0892911 10.3673709,11.0892911 10.7283568,10.7283052 C11.0893427,10.3673192 11.0893427,9.78209859 10.7283568,9.42111268 L6.80677934,5.49953521 Z" id="Shape"></path>
                </g>
                <g id="cancel-music-2" transform="translate(2.000000, 169.000000)" fill="#FFFFFF">
                    <path d="M7.42557746,5.99949296 L11.703662,1.72140845 C12.0974648,1.32760563 12.0974648,0.689126761 11.703662,0.295380282 C11.3098592,-0.0984225352 10.6714366,-0.0984225352 10.2776338,0.295380282 L5.99949296,4.57352113 L1.72135211,0.295323944 C1.3275493,-0.0984788732 0.689126761,-0.0984788732 0.295323944,0.295323944 C-0.0984225352,0.689126761 -0.0984225352,1.32760563 0.295323944,1.72135211 L4.57346479,5.99943662 L0.295323944,10.2775775 C-0.0984225352,10.6713803 -0.0984225352,11.3098592 0.295323944,11.7036056 C0.689126761,12.0974085 1.3275493,12.0974085 1.72135211,11.7036056 L5.99949296,7.42546479 L10.2776338,11.7036056 C10.6713803,12.0974085 11.3098592,12.0974085 11.703662,11.7036056 C12.0974648,11.3098028 12.0974648,10.6713803 11.703662,10.2775775 L7.42557746,5.99949296 Z" id="Shape"></path>
                </g>
                <g id="cancel-music" transform="translate(0.000000, 513.000000)" fill="#D74758">
                    <path d="M6.80677934,5.49953521 L10.7283568,1.57795775 C11.0893427,1.21697183 11.0893427,0.631699531 10.7283568,0.270765258 C10.3673709,-0.0902206573 9.78215023,-0.0902206573 9.42116432,0.270765258 L5.49953521,4.19239437 L1.5779061,0.270713615 C1.21692019,-0.0902723005 0.631699531,-0.0902723005 0.270713615,0.270713615 C-0.0902206573,0.631699531 -0.0902206573,1.21697183 0.270713615,1.5779061 L4.19234272,5.49948357 L0.270713615,9.42111268 C-0.0902206573,9.78209859 -0.0902206573,10.3673709 0.270713615,10.7283052 C0.631699531,11.0892911 1.21692019,11.0892911 1.5779061,10.7283052 L5.49953521,6.80667606 L9.42116432,10.7283052 C9.78209859,11.0892911 10.3673709,11.0892911 10.7283568,10.7283052 C11.0893427,10.3673192 11.0893427,9.78209859 10.7283568,9.42111268 L6.80677934,5.49953521 Z" id="Shape"></path>
                </g>
                <g id="like" transform="translate(1254.000000, 169.000000)" fill-rule="nonzero" fill="#FFFFFF">
                    <path d="M18.9674808,5.48712 C18.6901538,2.47968 16.5296346,0.29772 13.8257885,0.29772 C12.0244423,0.29772 10.3750962,1.2528 9.44701923,2.78352 C8.52734615,1.233 6.94559615,0.29736 5.17311538,0.29736 C2.46963462,0.29736 0.30875,2.47932 0.0317884615,5.48676 C0.00986538462,5.6196 -0.0800192308,6.31872 0.193288462,7.45884 C0.587173077,9.10332 1.49698077,10.59912 2.82369231,11.78352 L9.44263462,17.70156 L16.1752115,11.78388 C17.5019231,10.59912 18.4117308,9.10368 18.8056154,7.45884 C19.0789231,6.31908 18.9890385,5.61996 18.9674808,5.48712 Z M18.0942115,7.29396 C17.7346731,8.79588 16.9012308,10.16424 15.6863269,11.24856 L9.44701923,16.73316 L3.31476923,11.25 C2.09767308,10.16352 1.26459615,8.79552 0.904692308,7.2936 C0.646,6.21468 0.752326923,5.6052 0.752692308,5.60124 L0.758173077,5.56488 C0.995673077,2.93004 2.85219231,1.01736 5.17311538,1.01736 C6.88567308,1.01736 8.39325,2.05416 9.10867308,3.72276 L9.44519231,4.50864 L9.78171154,3.72276 C10.4858077,2.07972 12.0730385,1.01772 13.8261538,1.01772 C16.1467115,1.01772 18.0035962,2.9304 18.2458462,5.59944 C18.2465769,5.6052 18.3529038,6.21504 18.0942115,7.29396 Z" id="Shape"></path>
                </g>
                <g id="placeholder-2" transform="translate(1312.000000, 404.000000)" fill-rule="nonzero" fill="#D74758">
                    <path d="M10.5306923,5.89090909 C8.45276923,5.89090909 6.76146154,7.43285455 6.76146154,9.32727273 C6.76146154,11.2216909 8.45276923,12.7636364 10.5306923,12.7636364 C12.6086154,12.7636364 14.2999231,11.2216909 14.2999231,9.32727273 C14.2999231,7.43285455 12.6086154,5.89090909 10.5306923,5.89090909 Z M10.5306923,11.7818182 C9.04615385,11.7818182 7.83838462,10.6807091 7.83838462,9.32727273 C7.83838462,7.97383636 9.04615385,6.87272727 10.5306923,6.87272727 C12.0152308,6.87272727 13.223,7.97383636 13.223,9.32727273 C13.223,10.6807091 12.0152308,11.7818182 10.5306923,11.7818182 Z" id="Shape"></path>
                    <path d="M17.7369231,2.75743636 C15.7866154,0.979363636 13.1933846,0 10.4353846,0 C7.67684615,0 5.08415385,0.979363636 3.13384615,2.75743636 C-0.475461538,6.04750909 -0.924,12.2378727 2.16246154,15.9884182 L10.4353846,26.8807091 L18.6959231,16.0036364 C21.7947692,12.2378727 21.3462308,6.04750909 17.7369231,2.75743636 Z M17.8225385,15.4297636 L10.4353846,25.1556545 L3.03638462,15.4145455 C0.236923077,12.0115636 0.638076923,6.42109091 3.89576923,3.45158182 C5.64253846,1.85907273 7.96492308,0.981818182 10.4353846,0.981818182 C12.9058462,0.981818182 15.2282308,1.85907273 16.9755385,3.45158182 C20.2332308,6.42109091 20.6343846,12.0115636 17.8225385,15.4297636 Z" id="Shape"></path>
                </g>
                <g id="placeholder" transform="translate(305.000000, 537.000000)" fill-rule="nonzero" fill="#FFFFFF">
                    <path d="M9.02630769,5.23636364 C7.24523077,5.23636364 5.79553846,6.60698182 5.79553846,8.29090909 C5.79553846,9.97483636 7.24523077,11.3454545 9.02630769,11.3454545 C10.8073846,11.3454545 12.2570769,9.97483636 12.2570769,8.29090909 C12.2570769,6.60698182 10.8073846,5.23636364 9.02630769,5.23636364 Z M9.02630769,10.4727273 C7.75384615,10.4727273 6.71861538,9.49396364 6.71861538,8.29090909 C6.71861538,7.08785455 7.75384615,6.10909091 9.02630769,6.10909091 C10.2987692,6.10909091 11.334,7.08785455 11.334,8.29090909 C11.334,9.49396364 10.2987692,10.4727273 9.02630769,10.4727273 Z" id="Shape"></path>
                    <path d="M15.2030769,2.45105455 C13.5313846,0.870545455 11.3086154,0 8.94461538,0 C6.58015385,0 4.35784615,0.870545455 2.68615385,2.45105455 C-0.407538462,5.37556364 -0.792,10.8781091 1.85353846,14.2119273 L8.94461538,23.8939636 L16.0250769,14.2254545 C18.6812308,10.8781091 18.2967692,5.37556364 15.2030769,2.45105455 Z M15.2764615,13.7153455 L8.94461538,22.3605818 L2.60261538,13.7018182 C0.203076923,10.6769455 0.546923077,5.70763636 3.33923077,3.06807273 C4.83646154,1.65250909 6.82707692,0.872727273 8.94461538,0.872727273 C11.0621538,0.872727273 13.0527692,1.65250909 14.5504615,3.06807273 C17.3427692,5.70763636 17.6866154,10.6769455 15.2764615,13.7153455 Z" id="Shape"></path>
                </g>
            </g>
        </g>
    </g>
</svg>