<svg width="14" height="8" viewBox="0 0 14 8" fill="none" xmlns="http://www.w3.org/2000/svg">
<path d="M13.3973 1.28571C13.3973 1.17857 13.3438 1.05803 13.2634 0.977678L12.5938 0.308035C12.5134 0.227678 12.3929 0.174107 12.2857 0.174107C12.1786 0.174107 12.058 0.227678 11.9777 0.308035L6.71429 5.57143L1.45089 0.308035C1.37054 0.227678 1.25 0.174107 1.14286 0.174107C1.02232 0.174107 0.915179 0.227678 0.834822 0.308035L0.165179 0.977678C0.0848215 1.05803 0.0312501 1.17857 0.0312501 1.28571C0.0312501 1.39286 0.0848215 1.51339 0.165179 1.59375L6.40625 7.83482C6.48661 7.91518 6.60714 7.96875 6.71429 7.96875C6.82143 7.96875 6.94196 7.91518 7.02232 7.83482L13.2634 1.59375C13.3438 1.51339 13.3973 1.39286 13.3973 1.28571Z" fill="#908451"/>
</svg>
