<svg width="255" height="69" viewBox="0 0 255 69" fill="none" xmlns="http://www.w3.org/2000/svg">
<path fill-rule="evenodd" clip-rule="evenodd" d="M25.0675 37.2013L23.6721 44.302H27.5483C26.9281 47.698 24.9125 49.396 21.5015 49.396C19.3309 49.396 17.7804 48.6242 16.8501 47.2349C15.9198 45.6913 15.9199 42.9128 16.6951 38.8993C17.4703 34.7315 18.5556 31.953 19.951 30.4094C21.3464 28.8658 23.207 28.094 25.6877 28.094C27.3932 28.094 28.7886 28.557 29.8739 29.3289C30.9593 30.1007 31.7345 31.3356 32.1996 33.0336H41.1923L43.673 19.9128H34.6804L34.2152 22.3826C32.0446 20.0671 28.6336 18.9866 23.9822 18.9866C18.4006 18.9866 13.4391 20.8389 8.9428 24.3893C4.44648 27.9396 1.65566 32.7248 0.4153 38.4362C-0.359927 42.2953 -0.0498359 45.6913 1.34557 48.9329C2.58594 52.0201 4.91162 54.3356 8.16758 55.7248C11.4235 57.1141 14.9896 57.8859 19.3309 57.8859C22.1217 57.8859 24.9125 57.4228 27.5483 56.4966C30.184 55.5705 32.6648 54.1812 34.6804 52.1745C36.851 50.1678 38.4015 48.3154 39.3317 46.3087C40.262 44.302 41.1923 41.2148 41.9675 37.2013H25.0675ZM80.8839 19.7584L72.5115 34.2685L69.7206 19.7584H47.084L45.3785 28.7114H48.3244L44.6033 48.1611H41.6574L39.9519 57.1141H54.5262L56.2317 48.1611H53.2858L57.162 27.4765L62.7436 57.1141H68.3252L85.3802 27.3221L81.3491 48.1611H78.4032L76.6977 57.1141H96.2334L97.9389 48.1611H94.838L98.5591 28.7114H101.505L103.21 19.7584H80.8839ZM102.745 49.8591H121.971L124.142 38.2819H104.916L102.745 49.8591ZM154.065 27.9396C155.616 27.9396 156.701 28.4027 157.786 29.3289C158.717 30.255 159.337 31.6443 159.492 33.3423H168.795L171.43 19.7584H162.438L161.973 22.2282C159.647 20.0671 156.236 18.9866 151.895 18.9866C146.468 18.9866 141.662 20.8389 137.631 24.698C133.444 28.4027 130.964 33.0336 129.878 38.4362C128.793 43.8389 129.723 48.3154 132.514 52.0201C135.305 55.7248 140.266 57.5772 147.398 57.5772C152.67 57.5772 157.011 56.3423 160.577 53.7181C163.988 51.2483 166.624 47.8523 168.175 43.8389L159.027 40.443C157.011 45.8456 154.22 48.6242 150.499 48.6242C146.313 48.6242 144.918 45.0738 146.158 38.1275C147.243 31.4899 150.034 27.9396 154.065 27.9396ZM213.138 20.6846L198.408 27.1678L197.633 31.1812H194.222L192.672 39.3624H196.083L195.308 43.6846C194.687 47.0805 194.222 49.396 194.222 50.4765C194.222 51.094 194.222 51.7114 194.377 52.3289C194.532 52.9463 194.687 53.4094 194.997 54.1812C195.463 55.2617 196.548 56.1879 197.788 56.9597C199.184 57.5772 200.734 57.8859 202.905 57.8859C204.455 57.8859 206.316 57.5772 208.176 57.1141C209.882 56.651 211.277 56.1879 212.362 55.5705L213.913 47.5436C212.518 48.1611 211.432 48.3154 210.502 48.3154C209.572 48.3154 208.952 48.0067 208.796 47.5436C208.641 46.9262 208.641 45.8456 208.952 44.302L209.882 39.2081H215.308L216.859 31.0268H211.432L213.138 20.6846ZM241.511 31.0268L239.961 39.2081H242.441L236.24 49.396L233.604 39.2081H236.55L238.1 31.0268H220.27L218.719 39.2081H220.735L227.092 58.5034L225.231 61.1275H220.89L219.34 69H230.813L250.814 39.2081H253.45L255 31.0268H241.511ZM191.431 10.0336L190.811 8.79866L183.524 7.25503L182.439 8.18121L178.718 24.2349L188.485 26.2416L191.431 10.0336ZM189.881 5.40268L190.036 3.24161L190.656 1.69799L190.811 1.08054L186.625 0L186.47 0.771812V2.4698L185.695 4.47651L185.385 6.79195L189.261 7.71812L189.881 5.40268ZM190.191 28.2483C190.346 27.7852 190.036 27.4765 189.571 27.3221L177.012 24.698C176.547 24.698 176.237 24.8523 176.082 25.3154L175.927 26.2416L173.911 25.7785L172.981 30.1007C179.028 31.3356 185.23 32.5705 191.276 33.9597L192.207 29.6376L190.191 29.1745V28.2483ZM188.951 34.4228L174.841 31.4899L174.531 32.7248L173.291 32.4161L171.586 40.443L188.175 43.8389L189.881 35.8121L188.641 35.5034L188.951 34.4228ZM173.291 42.4497C173.601 42.604 173.601 42.9128 173.601 43.2215C173.601 43.5302 173.291 43.6846 172.981 43.8389L172.826 44.302C173.136 44.4564 173.136 44.7651 173.136 45.0738C173.136 45.3825 172.826 45.5369 172.516 45.6913L172.361 46.1544C172.671 46.3087 172.671 46.6174 172.671 46.9262C172.671 47.2349 172.361 47.3893 172.051 47.5436L172.206 47.8523C172.516 48.0067 172.516 48.3154 172.516 48.6242C172.516 48.9329 172.206 49.0872 171.896 49.2416L171.741 49.7047C172.051 49.8591 172.051 50.1678 172.051 50.4765C172.051 50.7852 171.741 50.9396 171.43 51.094L171.275 51.557C171.586 51.7114 171.586 52.0201 171.586 52.3289C171.586 52.6376 171.275 52.7919 170.965 52.9463L170.81 53.4094C171.12 53.5638 171.12 53.8725 171.12 54.1812C171.12 54.4899 170.81 54.6443 170.5 54.7987L170.19 56.651C170.5 56.8054 170.965 56.9597 171.275 57.2684V57.4228C170.81 59.2752 171.586 60.5101 173.911 60.9732L177.632 61.745L177.942 60.5101L174.221 59.7383C172.826 59.4295 172.361 58.8121 172.516 57.8859C173.601 58.349 174.531 58.6577 175.617 58.8121L175.462 59.5839L177.012 59.8926L177.167 59.1208C179.028 59.4295 181.043 59.5839 182.904 59.4295L183.214 57.5772C182.904 57.4228 182.904 57.1141 182.904 56.8054C182.904 56.4966 183.214 56.3423 183.524 56.1879L183.679 55.7248C183.369 55.5705 183.369 55.2617 183.369 54.953C183.369 54.6443 183.679 54.4899 183.989 54.3356L184.144 53.8725C183.834 53.7181 183.834 53.4094 183.834 53.1007C183.834 52.7919 184.144 52.6376 184.454 52.4832L184.609 52.0201C184.299 51.8658 184.299 51.557 184.299 51.2483C184.299 50.9396 184.609 50.7852 184.919 50.6309L185.074 50.1678C184.764 50.0134 184.764 49.7047 184.764 49.396C184.764 49.0872 185.074 48.9329 185.385 48.7785L185.54 48.3154C185.23 48.1611 185.23 47.8523 185.23 47.5436C185.23 47.2349 185.54 47.0805 185.85 46.9262L186.005 46.4631C185.695 46.3087 185.695 46 185.695 45.6913C185.695 45.3826 186.005 45.2282 186.315 45.0738L186.47 44.6107L173.756 41.9866L173.291 42.4497Z" fill="#363636"/>
</svg>
