<svg width="145" height="48" fill="none" xmlns="http://www.w3.org/2000/svg"><path d="M18.364 0H0v29.713L18.364 48V20.835L8.68 11.172v9.408l3.051 3.038v8.134L5.866 25.91V5.841h6.12v5.84l6.378 6.35V0zm2.815 0h18.364v29.713L21.179 48V20.835l9.684-9.663v9.408l-3.051 3.038v8.134l5.865-5.841V5.841h-6.121v5.84l-6.377 6.35V0zm31.729 15.758c2.5.02 5.098 1.314 5.708 4.371h-3.11c-.512-1.058-1.339-1.49-2.579-1.49-2.007 0-3.09 1.549-3.09 3.43 0 2.039 1.2 3.391 3.09 3.391 1.28 0 2.087-.333 2.658-1.509h-2.638v-2.724h5.866c.078 1.234.078 2.41-.355 3.606-.885 2.568-3.247 3.567-5.53 3.567-3.15 0-6.338-2.097-6.358-6.311 0-4.214 3.188-6.33 6.338-6.33zm16.14 2.999H64.46V20.5h4.213v2.803H64.46v2.176h4.744v2.802h-7.893V15.935h7.736v2.822zm1.672 0v-2.822h9.212v2.822h-3.03v9.525h-3.13v-9.525H70.72zm16.77-2.999c2.5.02 5.098 1.314 5.709 4.371h-3.11c-.512-1.058-1.339-1.49-2.579-1.49-2.008 0-3.09 1.549-3.09 3.43 0 2.039 1.2 3.391 3.09 3.391 1.28 0 2.087-.333 2.657-1.509H87.53v-2.724h5.865c.08 1.234.08 2.41-.354 3.606-.886 2.568-3.248 3.567-5.53 3.567-3.15 0-6.339-2.097-6.358-6.311 0-4.214 3.188-6.33 6.337-6.33zm15.078 8.35v-8.173h3.07v8.231c0 2.725-2.381 4.293-4.94 4.293-2.54 0-4.92-1.568-4.92-4.293v-8.231h3.03v8.173c0 1 .965 1.49 1.89 1.49.925 0 1.87-.49 1.87-1.49zm12.872 2.607h-4.881l-.728 1.548h-3.091v-.45l5.571-12.055h1.358l5.59 12.054v.451h-3.11l-.709-1.548zm-2.48-5.959l-1.378 3.254h2.795l-1.417-3.254zm18.404 7.056v.45h-3.543l-2.126-3.625h-1.653v3.626h-3.169V15.915h5.432c4.862.02 5.748 5.86 2.618 7.977l2.441 3.92zm-5.059-9.055c-.748-.02-1.515 0-2.263 0v3.058h2.263c1.713-.02 1.811-3.058 0-3.058zm11.633 9.525h-4.685V15.935h4.685c8.089.02 8.089 12.308 0 12.347zm-1.496-2.88h1.496c3.956 0 3.956-6.606 0-6.606h-1.496v6.605z" fill="#fff"/></svg>