<svg width="80" height="80" viewBox="0 0 80 80" fill="none" xmlns="http://www.w3.org/2000/svg">
<path d="M67.9307 12.0693C75.0222 19.1607 79.1507 28.6841 79.4789 38.7076C79.807 48.7311 76.3102 58.5041 69.6977 66.0442C63.0852 73.5842 53.8522 78.3268 43.8717 79.3098C33.8911 80.2928 23.9103 77.4426 15.9539 71.3375C7.99751 65.2323 2.66124 56.3293 1.02759 46.4344C-0.606065 36.5395 1.58522 26.3937 7.15695 18.055C12.7287 9.7163 21.2636 3.80917 31.0305 1.53186C40.7973 -0.745453 51.0648 0.777574 59.75 5.79199" stroke="#A6A6A6"/>
<path d="M59.9967 33.829L60 20.1966L54.5878 25.6111L53.9812 25.0044C50.1109 21.1324 44.9649 19 39.4914 19C28.1923 18.9999 19 28.1963 19 39.5C19 50.8036 28.1923 60 39.4914 60C50.7905 60 59.9828 50.8036 59.9828 39.5H56.0167C56.0167 48.6159 48.6034 56.0322 39.4914 56.0322C30.3793 56.0322 22.9661 48.6159 22.9661 39.5C22.9661 30.384 30.3793 22.9677 39.4914 22.9677C43.9057 22.9677 48.0555 24.6873 51.1768 27.8099L51.7833 28.4167L46.3717 33.8306L59.9967 33.829Z" fill="#0E89FF"/>
<path d="M39.4914 39.5V32.2257H35.5253V43.4677H46.7625V39.5H39.4914Z" fill="#0E89FF"/>
</svg>
