<svg width="80" height="80" viewBox="0 0 80 80" fill="none" xmlns="http://www.w3.org/2000/svg">
<path d="M67.9307 12.0693C75.0222 19.1607 79.1507 28.6841 79.4789 38.7076C79.807 48.7311 76.3102 58.5041 69.6977 66.0442C63.0852 73.5842 53.8522 78.3268 43.8717 79.3098C33.8911 80.2928 23.9103 77.4426 15.9539 71.3375C7.99751 65.2323 2.66124 56.3293 1.02759 46.4344C-0.606065 36.5395 1.58522 26.3937 7.15695 18.055C12.7287 9.7163 21.2636 3.80917 31.0305 1.53186C40.7973 -0.745453 51.0648 0.777574 59.75 5.79199" stroke="#A6A6A6"/>
<path d="M44.3945 31.2109H38.5352V37.0703H44.3945C46.0059 37.0703 47.3242 35.752 47.3242 34.1406C47.3242 32.5293 46.0059 31.2109 44.3945 31.2109Z" fill="#0E89FF"/>
<path d="M40 15C26.2598 15 15 26.2598 15 40C15 53.7402 26.2598 65 40 65C53.7402 65 65 53.7402 65 40C65 26.2598 53.7402 15 40 15ZM55.5811 55.5811C51.3964 59.7659 45.8628 62.0703 40 62.0703C34.1372 62.0703 28.6036 59.7659 24.4189 55.5811C20.2341 51.3964 17.9297 45.8628 17.9297 40C17.9297 34.1372 20.2341 28.6036 24.4189 24.4189C28.6036 20.2341 34.1372 17.9297 40 17.9297C45.8628 17.9297 51.3964 20.2341 55.5811 24.4189C59.7659 28.6036 62.0703 34.1372 62.0703 40C62.0703 45.8628 59.7659 51.3964 55.5811 55.5811Z" fill="#0E89FF"/>
<path d="M53.5094 26.4906C49.8782 22.8594 45.0804 20.8594 40 20.8594C34.9196 20.8594 30.1218 22.8594 26.4906 26.4906C22.8594 30.1218 20.8594 34.9196 20.8594 40C20.8594 45.0804 22.8594 49.8782 26.4906 53.5094C30.1218 57.1406 34.9196 59.1406 40 59.1406C45.0804 59.1406 49.8782 57.1406 53.5094 53.5094C57.141 49.8782 59.1406 45.0804 59.1406 40C59.1406 34.9196 57.141 30.1218 53.5094 26.4906ZM44.3945 40H38.5352V42.9297H45.8594V45.8594H38.5352V51.7188H35.6055V45.8594H32.6758V42.9297H35.6055V40H32.6758V37.0703H35.6055V28.2812H44.3945C47.6172 28.2812 50.2539 30.918 50.2539 34.1406C50.2539 37.3633 47.6172 40 44.3945 40Z" fill="#0E89FF"/>
</svg>
