<svg width="80" height="80" viewBox="0 0 80 80" fill="none" xmlns="http://www.w3.org/2000/svg">
<path d="M67.9307 12.0693C75.0222 19.1607 79.1507 28.6841 79.4789 38.7076C79.807 48.7311 76.3102 58.5041 69.6977 66.0442C63.0852 73.5842 53.8522 78.3268 43.8717 79.3098C33.8911 80.2928 23.9103 77.4426 15.9539 71.3375C7.99751 65.2323 2.66124 56.3293 1.02759 46.4344C-0.606065 36.5395 1.58522 26.3937 7.15695 18.055C12.7287 9.7163 21.2636 3.80917 31.0305 1.53186C40.7973 -0.745453 51.0648 0.777574 59.75 5.79199" stroke="#A6A6A6"/>
<path d="M35.875 37H34.5001V39.75H33.1251V37H31.7501C30.2314 37 29.0001 38.2313 29.0001 39.75V43.875C29.0001 45.3937 30.2314 46.625 31.7501 46.625H35.875C37.3937 46.625 38.625 45.3937 38.625 43.875V39.75C38.625 38.2313 37.3937 37 35.875 37Z" fill="#0E89FF"/>
<path d="M48.25 37H46.875V39.75H45.5V37H44.125C42.6063 37 41.375 38.2313 41.375 39.75V43.875C41.375 45.3937 42.6063 46.625 44.125 46.625H48.25C49.7686 46.625 50.9999 45.3937 50.9999 43.875V39.75C50.9999 38.2313 49.7686 37 48.25 37Z" fill="#0E89FF"/>
<path d="M35.875 49.375H34.5001V52.125H33.1251V49.375H31.7501C30.2314 49.375 29.0001 50.6063 29.0001 52.125V56.25C29.0001 57.7687 30.2314 59 31.7501 59H35.875C37.3937 59 38.625 57.7687 38.625 56.25V52.125C38.625 50.6063 37.3937 49.375 35.875 49.375Z" fill="#0E89FF"/>
<path d="M48.25 49.375H46.875V52.125H45.5V49.375H44.125C42.6063 49.375 41.375 50.6063 41.375 52.125V56.25C41.375 57.7687 42.6063 59 44.125 59H48.25C49.7686 59 50.9999 57.7687 50.9999 56.25V52.125C50.9999 50.6063 49.7686 49.375 48.25 49.375Z" fill="#0E89FF"/>
<path d="M60.4798 24.915L41.2299 15.29C40.4551 14.9033 39.5448 14.9033 38.77 15.29L19.5201 24.915C18.3795 25.4858 17.7806 26.7654 18.074 28.0068C18.3667 29.2482 19.4611 30.125 20.7502 30.125V56.25C20.7502 57.7687 21.9815 59 23.5001 59C25.0188 59 26.2501 57.7687 26.2501 56.25V34.25H53.7499V56.25C53.7499 57.7687 54.9812 59 56.4999 59C58.0186 59 59.2499 57.7687 59.2499 56.25V30.125C60.5389 30.125 61.6333 29.2482 61.926 28.0068C62.2193 26.7654 61.6205 25.4857 60.4798 24.915ZM34.5001 28.75H31.7501V26H34.5001V28.75ZM42.75 28.75H37.25V26H42.75V28.75ZM48.25 28.75H45.5V26H48.25V28.75Z" fill="#0E89FF"/>
</svg>
