<svg width="80" height="80" viewBox="0 0 80 80" fill="none" xmlns="http://www.w3.org/2000/svg">
<path d="M67.9307 12.0693C75.0222 19.1607 79.1507 28.6841 79.4789 38.7076C79.807 48.7311 76.3102 58.5041 69.6977 66.0442C63.0852 73.5842 53.8522 78.3268 43.8717 79.3098C33.8911 80.2928 23.9103 77.4426 15.9539 71.3375C7.99751 65.2323 2.66124 56.3293 1.02759 46.4344C-0.606065 36.5395 1.58522 26.3937 7.15695 18.055C12.7287 9.7163 21.2636 3.80917 31.0305 1.53186C40.7973 -0.745453 51.0648 0.777574 59.75 5.79199" stroke="#A6A6A6"/>
<path d="M29.1244 27.1236C31.0179 25.2302 33.5357 24.1875 36.2136 24.1875C38.8914 24.1875 41.409 25.2302 43.3026 27.1237C45.1927 29.0136 46.2337 31.5311 46.2337 34.2121C46.2337 36.8931 45.1927 39.4105 43.3026 41.3006C41.4091 43.1939 38.8915 44.2367 36.2136 44.2367C33.5356 44.2367 31.018 43.1939 29.1245 41.3006C25.2155 37.392 25.2155 31.0322 29.1244 27.1236ZM37.5614 27.6465H34.8658V36.7656H37.5614V27.6465ZM34.8657 40.8535H37.5613V38.3828H34.8657V40.8535Z" fill="#0E89FF"/>
<path d="M58.9585 49.8464L63.5268 54.4144C64.4768 55.3643 65 56.6272 65 57.9706C65 59.3141 64.4768 60.577 63.5268 61.5269C62.5769 62.4768 61.3137 63 59.9703 63C58.6268 63 57.3637 62.4768 56.4137 61.5269L51.8453 56.959L58.9585 49.8464Z" fill="#0E89FF"/>
<path d="M24.0417 22.0413C27.2929 18.7904 31.6156 17 36.2135 17C40.8115 17 45.1342 18.7904 48.3854 22.0413C51.6366 25.2922 53.4271 29.6145 53.4271 34.2121C53.4271 38.3575 51.971 42.2787 49.3014 45.393L51.1159 47.2074L53.7176 44.6059L57.0525 47.9406L49.9393 55.0531L46.6044 51.7185L49.21 49.1131L47.3955 47.2987C44.2809 49.9681 40.3594 51.4241 36.2136 51.4241C31.6157 51.4241 27.293 49.6337 24.0418 46.3828C20.7905 43.1319 19 38.8096 19 34.212C19 29.6144 20.7904 25.2922 24.0417 22.0413ZM27.2184 43.2064C29.6209 45.6089 32.8155 46.932 36.2135 46.932C39.6114 46.932 42.8059 45.6089 45.2086 43.2064C50.1685 38.247 50.1685 30.1773 45.2086 25.2178C42.8059 22.8153 39.6114 21.4922 36.2136 21.4922C32.8157 21.4922 29.6211 22.8153 27.2185 25.2177C22.2585 30.1772 22.2585 38.247 27.2184 43.2064Z" fill="#0E89FF"/>
</svg>
