<svg width="80" height="80" viewBox="0 0 80 80" fill="none" xmlns="http://www.w3.org/2000/svg">
<path d="M67.9307 12.0693C75.0222 19.1607 79.1507 28.6841 79.4789 38.7076C79.807 48.7311 76.3102 58.5041 69.6977 66.0442C63.0852 73.5842 53.8522 78.3268 43.8717 79.3098C33.8911 80.2928 23.9103 77.4426 15.9539 71.3375C7.99751 65.2323 2.66124 56.3293 1.02759 46.4344C-0.606065 36.5395 1.58522 26.3937 7.15695 18.055C12.7287 9.7163 21.2636 3.80917 31.0305 1.53186C40.7973 -0.745453 51.0648 0.777574 59.75 5.79199" stroke="#A6A6A6"/>
<path d="M59.0682 49.1819H52.2273C47.9164 49.1819 44.4091 45.6747 44.4091 41.3639C44.4091 37.0531 47.9164 33.5458 52.2273 33.5458H59.0682C59.6084 33.5458 60.0455 33.1087 60.0455 32.5685V29.6368C60.0455 27.5875 58.4559 25.9208 56.4475 25.7592L50.8349 15.9561C50.3148 15.0495 49.4749 14.4015 48.47 14.1324C47.4697 13.8651 46.4238 14.0055 45.5286 14.5265L26.2883 25.7277H22.9091C20.7532 25.7277 19 27.4808 19 29.6368V53.0909C19 55.2468 20.7531 57 22.9091 57H56.1364C58.2923 57 60.0455 55.2469 60.0455 53.0909V50.1592C60.0455 49.619 59.6084 49.1819 59.0682 49.1819ZM52.0469 22.0084L54.1764 25.7277H45.6584L52.0469 22.0084ZM30.173 25.7277L46.5125 16.2157C46.9544 15.957 47.4707 15.8883 47.9641 16.0201C48.4633 16.1537 48.8794 16.4762 49.138 16.9276L49.1401 16.9312L34.0311 25.7277H30.173Z" fill="#0E89FF"/>
<path d="M59.0682 35.5003H52.2273C48.9938 35.5003 46.3636 38.1305 46.3636 41.3639C46.3636 44.5972 48.9938 47.2274 52.2273 47.2274H59.0682C60.6849 47.2274 62 45.9123 62 44.2956V38.4321C62 36.8154 60.6849 35.5003 59.0682 35.5003ZM52.2273 43.3183C51.1498 43.3183 50.2727 42.4413 50.2727 41.3639C50.2727 40.2864 51.1498 39.4094 52.2273 39.4094C53.3047 39.4094 54.1818 40.2864 54.1818 41.3639C54.1819 42.4413 53.3048 43.3183 52.2273 43.3183Z" fill="#0E89FF"/>
</svg>
