<svg width="80" height="80" viewBox="0 0 80 80" fill="none" xmlns="http://www.w3.org/2000/svg">
<path d="M67.9307 12.0693C75.0222 19.1607 79.1507 28.6841 79.4789 38.7076C79.807 48.7311 76.3102 58.5041 69.6977 66.0442C63.0852 73.5842 53.8522 78.3268 43.8717 79.3098C33.8911 80.2928 23.9103 77.4426 15.9539 71.3375C7.99751 65.2323 2.66124 56.3293 1.02759 46.4344C-0.606065 36.5395 1.58522 26.3937 7.15695 18.055C12.7287 9.7163 21.2636 3.80917 31.0305 1.53186C40.7973 -0.745453 51.0648 0.777574 59.75 5.79199" stroke="#A6A6A6"/>
<path d="M57.3685 16.8538V19.1541C57.3685 21.4734 55.4898 23.3923 53.2018 23.3923H52.9887C50.6998 23.3923 48.8022 21.4724 48.8022 19.1541V16.5487H44.244V19.1541C44.244 21.4734 42.3474 23.3923 40.0585 23.3923H39.8484C37.5574 23.3923 35.6787 21.4724 35.6787 19.1541V16.5487H31.0442V19.1541C31.0442 21.4734 29.2081 23.3923 26.9191 23.3923H26.7071C24.4171 23.3923 22.5572 21.4724 22.5572 19.1541V16.8889C19.8857 17.7771 18 20.3082 18 23.2909V53.2848C18 57.0092 20.9697 60 24.647 60H55.3619C59.0392 60 62 57.0092 62 53.2848V23.2909C62.004 20.2701 60.04 17.7099 57.3685 16.8538ZM58.7043 52.6656C58.7043 54.8214 56.993 56.5777 54.8645 56.5777H25.1484C23.0199 56.5777 21.3027 54.8214 21.3027 52.6656V31.357C21.3027 29.8887 22.468 28.7235 23.9187 28.7235H56.0952C57.5459 28.7235 58.7052 29.8887 58.7052 31.357L58.7043 52.6656Z" fill="#0E89FF"/>
<path d="M26.71 21.3219H26.9211C27.579 21.3219 28.1637 21.0409 28.561 20.5722C28.889 20.1868 29.0813 19.702 29.0813 19.1531V16.1713C29.0813 15.5692 28.8484 15.0232 28.4609 14.6258C28.457 14.6228 28.457 14.6177 28.454 14.6147C28.451 14.6117 28.45 14.6268 28.4481 14.6238C28.0547 14.2293 27.5166 14.0015 26.9201 14.0015H26.709C26.1115 14.0015 25.5725 14.2293 25.1791 14.6238C25.1781 14.6268 25.1761 14.6208 25.1731 14.6228C25.1692 14.6268 25.1603 14.6258 25.1573 14.6278C24.7688 15.0262 24.5241 15.5672 24.5241 16.1703V19.1541C24.5241 19.702 24.7282 20.1878 25.0562 20.5732C25.4546 21.0429 26.0511 21.3219 26.71 21.3219Z" fill="#0E89FF"/>
<path d="M38.6098 20.9716C38.6137 20.9736 38.6246 20.9766 38.6276 20.9786C38.6335 20.9826 38.6454 20.9706 38.6504 20.9746C38.9942 21.2044 39.4074 21.3229 39.8504 21.3229H40.0614C40.434 21.3229 40.7838 21.2446 41.089 21.077C41.093 21.076 41.0949 21.083 41.0989 21.081C41.1049 21.077 41.0969 21.077 41.1049 21.072C41.7707 20.6956 42.2057 19.98 42.2057 19.1531V16.1703C42.2057 15.4548 41.8827 14.8185 41.3595 14.416C41.3546 14.413 41.3585 14.409 41.3546 14.406L41.3585 14.423C40.9968 14.1481 40.5509 14.0025 40.0624 14.0025H39.8514C39.2895 14.0025 38.7782 14.2023 38.3928 14.5565L38.3908 14.5495C38.3858 14.5535 38.367 14.5535 38.363 14.5575C37.932 14.96 37.6466 15.531 37.6466 16.1713V19.1561C37.6456 19.9088 38.038 20.5752 38.6098 20.9716Z" fill="#0E89FF"/>
<path d="M52.9907 21.3219H53.2018C53.8617 21.3219 54.4632 21.0409 54.8645 20.5722C55.1925 20.1868 55.4065 19.702 55.4065 19.1531V16.1713C55.4065 15.3393 54.9339 14.6157 54.263 14.2404C54.2581 14.2384 54.2482 14.2364 54.2452 14.2344C54.1907 14.2053 54.1332 14.1792 54.0777 14.1541C54.0668 14.1501 54.0569 14.146 54.05 14.142C54.0361 14.137 54.0232 14.132 54.0094 14.126C53.9886 14.1179 53.9697 14.1099 53.9489 14.1029C53.937 14.0989 53.9281 14.0959 53.9172 14.0919C53.8954 14.0838 53.8706 14.0919 53.8488 14.0848C53.6457 14.0206 53.4267 14.0015 53.2028 14.0015H52.9917C52.8797 14.0015 52.7846 13.9945 52.6766 14.0106C51.6312 14.1721 50.8474 15.0694 50.8474 16.1703V19.1551C50.8464 20.3694 51.7907 21.3219 52.9907 21.3219Z" fill="#0E89FF"/>
<path d="M38.9879 49.352V36.456H35.3719V33.48L43.5959 31.912V49.352H48.1719V53H34.6039V49.352H38.9879Z" fill="#0E89FF"/>
</svg>
