<svg width="80" height="80" viewBox="0 0 80 80" fill="none" xmlns="http://www.w3.org/2000/svg">
<path d="M67.9307 12.0693C75.0222 19.1607 79.1507 28.6841 79.4789 38.7076C79.807 48.7311 76.3102 58.5041 69.6977 66.0442C63.0852 73.5842 53.8522 78.3268 43.8717 79.3098C33.8911 80.2928 23.9103 77.4426 15.9539 71.3375C7.99751 65.2323 2.66124 56.3293 1.02759 46.4344C-0.606065 36.5395 1.58522 26.3937 7.15695 18.055C12.7287 9.7163 21.2636 3.80917 31.0305 1.53186C40.7973 -0.745453 51.0648 0.777574 59.75 5.79199" stroke="#A6A6A6"/>
<path d="M62.3328 23.8747L61.5977 24.1736L62.3328 29.9839C62.4082 29.9653 62.5024 29.9653 62.5967 29.9653C62.6721 29.9653 62.7475 29.9653 62.8229 29.9839L62.7475 23.6692C62.5401 23.8187 62.3328 23.8747 62.3328 23.8747Z" fill="#0E89FF"/>
<path d="M47.7368 45.9016C48.1138 45.7708 48.4907 45.6774 48.9054 45.64V45.2663H47.7368V45.9016Z" fill="#0E89FF"/>
<path d="M63.9842 45.2663L67 43.5289V41.4007H42.4147V35.1777L42.0754 35.3459V33.1413V34.2979L61.3527 24.2857L62.0878 30.0774C61.5977 30.3015 61.5412 30.806 61.5412 30.806L62.1632 32.8424H62.2197L62.2762 33.4216C62.2762 33.4216 63.4637 33.515 63.4637 34.4304C63.4637 34.9722 63.0302 35.0843 62.7286 35.0843C62.182 35.0843 61.8427 34.5612 61.8427 34.0568C61.8427 33.8139 61.315 33.8513 61.315 33.8513C61.315 33.8513 61.56 33.926 61.5412 34.1875C61.4846 34.6172 61.9181 35.6821 62.7286 35.7195C63.5391 35.7569 64.1046 35.0656 64.1046 34.4865C64.1046 33.3655 62.8605 33.0479 62.8605 33.0479V32.8424H63.1433L63.6522 30.806C63.6522 30.806 63.5956 30.2829 63.0867 30.0587L63.0113 23.389C63.1056 23.2208 63.1433 22.9966 63.049 22.6977C62.7286 21.6702 61.805 22.0812 61.805 22.0812L39.7711 29.5542V28.8069L37.4904 30.3202V36.4108L36.9061 36.691V42.5387H36.2276C36.2276 38.9142 36.2276 32.6403 36.2276 32.0798C36.2276 31.1083 35.926 30.0434 34.3616 30.0434C32.7971 30.0434 29.2372 30.0434 27.4089 30.0434C25.5617 30.0434 21.8108 35.2746 20.3783 36.3021C18.4935 37.6659 14.5353 42.0903 14.328 43.3794C14.1206 44.6685 15.2327 47.639 15.2327 47.639C15.2327 47.639 14.9688 47.8072 14.196 48.1995C13.8191 48.3863 14.1018 50.5909 14.1018 50.5909H18.3804C18.3616 50.3854 18.3427 50.1986 18.3427 49.9744C18.3427 47.0412 20.7365 44.6685 23.6957 44.6685C26.6549 44.6685 29.0487 47.0412 29.0487 49.9744C29.0487 50.1799 29.0298 50.3854 29.011 50.5909C29.011 50.5909 33.5511 50.5909 34.4746 50.5909C35.3982 50.5909 36.2464 49.9183 36.2464 48.5171C36.2464 48.4984 36.2464 48.4798 36.2464 48.4424H37.5093V51.2822H38.6967C38.7721 51.5063 38.9795 51.6745 39.2245 51.6745C39.4695 51.6745 39.6768 51.5063 39.7522 51.2822H41.3094C41.3848 51.5063 41.5922 51.6745 41.8372 51.6745C42.0822 51.6745 42.2896 51.5063 42.3649 51.2822H43.5147V48.4424H44.721L45.1545 48.1248C44.8153 48.7787 44.6079 49.5073 44.6079 50.292C44.6079 52.8889 46.7378 55 49.3578 55C51.9777 55 54.1076 52.8889 54.1076 50.292C54.1076 49.5447 53.9191 48.8347 53.6175 48.1995H56.3694C56.1432 48.7413 56.0301 49.3392 56.0301 49.9744C56.0301 52.5713 58.16 54.6824 60.78 54.6824C63.3999 54.6824 65.5298 52.5713 65.5298 49.9744C65.5298 48.2369 64.5685 46.7236 63.1549 45.9016V45.2477H63.9842V45.2663ZM62.5967 29.9653C62.5024 29.9653 62.4082 29.9839 62.3328 29.9839L61.5977 24.1736L62.3328 23.8747C62.3328 23.8747 62.5401 23.8187 62.7475 23.6505L62.8229 29.9653C62.7663 29.9653 62.6909 29.9653 62.5967 29.9653ZM25.3544 36.5637C25.4298 36.3955 25.4863 36.2274 25.4863 36.0405C25.4863 35.2746 24.7324 34.6393 23.7334 34.4712C25.0716 32.9392 26.5418 31.2204 27.5031 31.2204H32.2128C33.0987 31.2204 33.2872 31.4633 33.4191 31.893C33.5888 32.5095 33.8338 34.2657 33.4191 35.6856C33.2495 36.2834 32.7971 36.4889 32.4202 36.5637H25.3544ZM48.9054 45.64C48.4907 45.6774 48.1138 45.7708 47.7368 45.9016V45.2663H48.9054V45.64Z" fill="#0E89FF"/>
<path d="M23.6768 45.285C21.0569 45.285 18.927 47.3962 18.927 49.9931C18.927 52.5899 20.6988 54.7011 23.3187 54.7011C25.9387 54.7011 28.4078 52.5899 28.4078 49.9931C28.4078 47.3775 26.2968 45.285 23.6768 45.285ZM23.6768 52.3284C22.3763 52.3284 21.3019 51.2822 21.3019 49.9744C21.3019 48.6853 22.3574 47.6204 23.6768 47.6204C24.9962 47.6204 26.0518 48.6853 26.0518 49.9744C26.0518 51.2822 24.9774 52.3284 23.6768 52.3284Z" fill="#0E89FF"/>
</svg>
