<svg width="18" height="14" viewBox="0 0 18 14" fill="none" xmlns="http://www.w3.org/2000/svg">
<path d="M9.00019 0.208984C4.02963 0.208984 0 4.27686 0 9.29489C0 12.0158 1.17422 13.7903 1.17422 13.7903L16.8224 13.7911C16.8224 13.7911 18 11.8517 18 9.2947C18 4.27686 13.9704 0.208984 9.00019 0.208984ZM16.1623 12.6842L1.86658 12.678C1.86658 12.678 1.10482 11.2354 1.10482 9.26622C1.10482 4.86811 4.65314 1.30248 9.03036 1.30248C13.4074 1.30248 16.9559 4.86793 16.9559 9.26622C16.9561 11.2576 16.1623 12.6842 16.1623 12.6842Z" fill="#DB3E3E"/>
<path d="M11.5436 2.62164L11.4307 2.62145L9.02998 7.32565L6.54291 2.58128L3.13774 11.1521H2.25773V11.8405H7.07872V11.1521H6.12214L7.07872 8.47346L9.02998 11.8405L10.9049 8.47346L11.8612 11.1521H10.9049V11.8405H15.6874V11.1521H14.8589L11.5436 2.62164Z" fill="#DB3E3E"/>
</svg>
