<svg width="221" height="16" fill="none" xmlns="http://www.w3.org/2000/svg"><path d="M220.354 8.354a.5.5 0 000-.708l-3.182-3.182a.501.501 0 00-.708.708L219.293 8l-2.829 2.828a.5.5 0 00.708.708l3.182-3.182zM0 8.5h1v-1H0v1zm3 0h2v-1H3v1zm4 0h2v-1H7v1zm4 0h2v-1h-2v1zm4 0h2v-1h-2v1zm4 0h2v-1h-2v1zm4 0h2v-1h-2v1zm4 0h2v-1h-2v1zm4 0h2v-1h-2v1zm4 0h2v-1h-2v1zm4 0h2v-1h-2v1zm4 0h2v-1h-2v1zm4 0h2v-1h-2v1zm4 0h2v-1h-2v1zm4 0h2v-1h-2v1zm4 0h2v-1h-2v1zm4 0h2v-1h-2v1zm4 0h2v-1h-2v1zm4 0h2v-1h-2v1zm4 0h2v-1h-2v1zm4 0h2v-1h-2v1zm4 0h2v-1h-2v1zm4 0h2v-1h-2v1zm4 0h2v-1h-2v1zm4 0h2v-1h-2v1zm4 0h2v-1h-2v1zm4 0h2v-1h-2v1zm4 0h2v-1h-2v1zm4 0h2v-1h-2v1zm4 0h2v-1h-2v1zm4 0h2v-1h-2v1zm4 0h2v-1h-2v1zm4 0h2v-1h-2v1zm4 0h2v-1h-2v1zm4 0h2v-1h-2v1zm4 0h2v-1h-2v1zm4 0h2v-1h-2v1zm4 0h2v-1h-2v1zm4 0h2v-1h-2v1zm4 0h2v-1h-2v1zm4 0h2v-1h-2v1zm4 0h2v-1h-2v1zm4 0h2v-1h-2v1zm4 0h2v-1h-2v1zm4 0h2v-1h-2v1zm4 0h2v-1h-2v1zm4 0h2v-1h-2v1zm4 0h2v-1h-2v1zm4 0h2v-1h-2v1zm4 0h2v-1h-2v1zm4 0h2v-1h-2v1zm4 0h2v-1h-2v1zm4 0h2v-1h-2v1zm4 0h2v-1h-2v1zm4 0h2v-1h-2v1zm4 0h1v-1h-1v1zm1.707.207a1 1 0 000-1.414L214.343.929a1 1 0 10-1.414 1.414L218.586 8l-5.657 5.657a1 1 0 101.414 1.414l6.364-6.364zM0 9h1V7H0v2zm3 0h2V7H3v2zm4 0h2V7H7v2zm4 0h2V7h-2v2zm4 0h2V7h-2v2zm4 0h2V7h-2v2zm4 0h2V7h-2v2zm4 0h2V7h-2v2zm4 0h2V7h-2v2zm4 0h2V7h-2v2zm4 0h2V7h-2v2zm4 0h2V7h-2v2zm4 0h2V7h-2v2zm4 0h2V7h-2v2zm4 0h2V7h-2v2zm4 0h2V7h-2v2zm4 0h2V7h-2v2zm4 0h2V7h-2v2zm4 0h2V7h-2v2zm4 0h2V7h-2v2zm4 0h2V7h-2v2zm4 0h2V7h-2v2zm4 0h2V7h-2v2zm4 0h2V7h-2v2zm4 0h2V7h-2v2zm4 0h2V7h-2v2zm4 0h2V7h-2v2zm4 0h2V7h-2v2zm4 0h2V7h-2v2zm4 0h2V7h-2v2zm4 0h2V7h-2v2zm4 0h2V7h-2v2zm4 0h2V7h-2v2zm4 0h2V7h-2v2zm4 0h2V7h-2v2zm4 0h2V7h-2v2zm4 0h2V7h-2v2zm4 0h2V7h-2v2zm4 0h2V7h-2v2zm4 0h2V7h-2v2zm4 0h2V7h-2v2zm4 0h2V7h-2v2zm4 0h2V7h-2v2zm4 0h2V7h-2v2zm4 0h2V7h-2v2zm4 0h2V7h-2v2zm4 0h2V7h-2v2zm4 0h2V7h-2v2zm4 0h2V7h-2v2zm4 0h2V7h-2v2zm4 0h2V7h-2v2zm4 0h2V7h-2v2zm4 0h2V7h-2v2zm4 0h2V7h-2v2zm4 0h2V7h-2v2zm4 0h1V7h-1v2z" fill="#fff"/></svg>