<svg width="102" height="104" fill="none" xmlns="http://www.w3.org/2000/svg"><circle cx="86" cy="89" r="15" fill="#DB3E3E"/><path d="M83.797 96.648l-6.524-6.484a.952.952 0 01-.273-.703c0-.287.091-.52.273-.703l1.446-1.406a.85.85 0 01.664-.313c.286 0 .534.104.742.313l4.375 4.375 9.375-9.375c.208-.209.443-.313.703-.313.287 0 .521.104.703.313l1.446 1.406a.952.952 0 01.273.703c0 .286-.091.52-.273.703L85.203 96.648a.891.891 0 01-.703.313.891.891 0 01-.703-.313z" fill="#fff"/><path d="M97.985 68.101a50 50 0 10-33.203 30.962" stroke="#F5F5F5" stroke-width="2"/></svg>