<svg width="38" height="35" viewBox="0 0 38 35" fill="none" xmlns="http://www.w3.org/2000/svg">
<path d="M37.837 33.0376L20.1525 0.685745C19.9213 0.262795 19.4796 0 19 0C18.5204 0 18.0789 0.262795 17.8476 0.685745L0.162947 33.0376C-0.0612969 33.4477 -0.0536152 33.9466 0.183045 34.3497C0.419706 34.7528 0.850199 35 1.31531 35H36.6846C37.1499 35 37.5803 34.7528 37.817 34.3497C38.0537 33.9466 38.0612 33.4477 37.837 33.0376ZM3.54049 32.3518L19 4.07051L34.4596 32.3518H3.54049Z" fill="#DB3E3E"/>
<path d="M17.3516 13.5307V23.1009C17.3516 24.0171 18.0897 24.7602 19 24.7602C19.9103 24.7602 20.6484 24.0171 20.6484 23.1009V13.5307C20.6484 12.6143 19.9103 11.8714 19 11.8714C18.0897 11.8714 17.3516 12.6144 17.3516 13.5307Z" fill="#DB3E3E"/>
<path d="M19.0001 26.4828C18.0428 26.4828 17.2638 27.2666 17.2638 28.2306C17.2638 29.1943 18.0428 29.9783 19.0001 29.9783C19.9573 29.9783 20.7364 29.1943 20.7364 28.2306C20.7364 27.2667 19.9572 26.4828 19.0001 26.4828Z" fill="#DB3E3E"/>
</svg>
